<?xml version="1.0" encoding="UTF-8" standalone="no"?>
<!DOCTYPE svg PUBLIC "-//W3C//DTD SVG 1.1//EN"
 "http://www.w3.org/Graphics/SVG/1.1/DTD/svg11.dtd">
<!-- Generated by graphviz version 2.40.1 (20161225.0304)
 -->
<!-- Title: graph_name Pages: 1 -->
<svg width="1254pt" height="750pt"
 viewBox="0.00 0.00 1253.86 749.80" xmlns="http://www.w3.org/2000/svg" xmlns:xlink="http://www.w3.org/1999/xlink">
<g id="graph0" class="graph" transform="scale(1 1) rotate(0) translate(4 745.8)">
<title>graph_name</title>
<polygon fill="#ffffff" stroke="transparent" points="-4,4 -4,-745.8 1249.8604,-745.8 1249.8604,4 -4,4"/>
<!-- A -->
<g id="node1" class="node">
<title>A</title>
<ellipse fill="none" stroke="#0000ff" stroke-width="2" cx="403.4302" cy="-723.8" rx="147.8069" ry="18"/>
<text text-anchor="middle" x="403.4302" y="-719.6" font-family="Times,serif" font-size="14.00" fill="#ff0000">你想要移除一些对文件的修改</text>
</g>
<!-- B -->
<g id="node2" class="node">
<title>B</title>
<polygon fill="none" stroke="#0000ff" stroke-width="2" points="403.4302,-668.8 285.9384,-650.8 403.4302,-632.8 520.922,-650.8 403.4302,-668.8"/>
<text text-anchor="middle" x="403.4302" y="-646.6" font-family="Times,serif" font-size="14.00" fill="#ff0000">更改是否已经提交</text>
</g>
<!-- A&#45;&gt;B -->
<g id="edge10" class="edge">
<title>A&#45;&gt;B</title>
<path fill="none" stroke="#0000ff" stroke-width="2" d="M403.4302,-705.7551C403.4302,-697.6828 403.4302,-687.9764 403.4302,-678.9817"/>
<polygon fill="#0000ff" stroke="#0000ff" stroke-width="2" points="406.9303,-678.8903 403.4302,-668.8904 399.9303,-678.8904 406.9303,-678.8903"/>
</g>
<!-- C -->
<g id="node3" class="node">
<title>C</title>
<polygon fill="none" stroke="#0000ff" stroke-width="2" points="275.4302,-580.1002 177.6385,-538.4 275.4302,-496.6998 373.2219,-538.4 275.4302,-580.1002"/>
<text text-anchor="middle" x="275.4302" y="-542.6" font-family="Times,serif" font-size="14.00" fill="#ff0000">更改是否已经</text>
<text text-anchor="middle" x="275.4302" y="-525.8" font-family="Times,serif" font-size="14.00" fill="#ff0000">在暂存区</text>
</g>
<!-- B&#45;&gt;C -->
<g id="edge11" class="edge">
<title>B&#45;&gt;C</title>
<path fill="none" stroke="#0000ff" stroke-width="2" d="M385.9007,-635.4069C367.8154,-619.5257 338.9885,-594.2121 315.3166,-573.4252"/>
<polygon fill="#0000ff" stroke="#0000ff" stroke-width="2" points="317.3329,-570.5379 307.5093,-566.5695 312.7141,-575.7978 317.3329,-570.5379"/>
<text text-anchor="middle" x="369.4302" y="-602.2" font-family="Times,serif" font-size="14.00" fill="#006400">否</text>
</g>
<!-- D -->
<g id="node4" class="node">
<title>D</title>
<polygon fill="none" stroke="#0000ff" stroke-width="2" points="532.4302,-580.1002 390.7646,-538.4 532.4302,-496.6998 674.0958,-538.4 532.4302,-580.1002"/>
<text text-anchor="middle" x="532.4302" y="-542.6" font-family="Times,serif" font-size="14.00" fill="#ff0000">您是否想要在</text>
<text text-anchor="middle" x="532.4302" y="-525.8" font-family="Times,serif" font-size="14.00" fill="#ff0000">提交日志中留下记录</text>
</g>
<!-- B&#45;&gt;D -->
<g id="edge12" class="edge">
<title>B&#45;&gt;D</title>
<path fill="none" stroke="#0000ff" stroke-width="2" d="M421.0966,-635.4069C438.4553,-620.282 465.6331,-596.6015 488.7905,-576.4241"/>
<polygon fill="#0000ff" stroke="#0000ff" stroke-width="2" points="491.2295,-578.9412 496.4697,-569.733 486.6309,-573.6635 491.2295,-578.9412"/>
<text text-anchor="middle" x="467.8215" y="-602.2" font-family="Times,serif" font-size="14.00" fill="#006400">是</text>
</g>
<!-- E -->
<g id="node5" class="node">
<title>E</title>
<polygon fill="none" stroke="#0000ff" stroke-width="2" points="183.4302,-444.1002 .0698,-402.4 183.4302,-360.6998 366.7906,-402.4 183.4302,-444.1002"/>
<text text-anchor="middle" x="183.4302" y="-406.6" font-family="Times,serif" font-size="14.00" fill="#ff0000">这些修改是否位于</text>
<text text-anchor="middle" x="183.4302" y="-389.8" font-family="Times,serif" font-size="14.00" fill="#ff0000">您想要保存的工作目录中</text>
</g>
<!-- C&#45;&gt;E -->
<g id="edge14" class="edge">
<title>C&#45;&gt;E</title>
<path fill="none" stroke="#0000ff" stroke-width="2" d="M253.3939,-505.8246C241.5926,-488.3792 226.8718,-466.6181 213.982,-447.5635"/>
<polygon fill="#0000ff" stroke="#0000ff" stroke-width="2" points="216.7077,-445.3462 208.2055,-439.0244 210.9097,-449.2684 216.7077,-445.3462"/>
<text text-anchor="middle" x="242.8215" y="-466.2" font-family="Times,serif" font-size="14.00" fill="#006400">是</text>
</g>
<!-- F -->
<g id="node6" class="node">
<title>F</title>
<polygon fill="none" stroke="#0000ff" stroke-width="2" points="380.0517,-148.4 232.8087,-148.4 232.8087,-112.4 380.0517,-112.4 380.0517,-148.4"/>
<text text-anchor="middle" x="306.4302" y="-126.2" font-family="Times,serif" font-size="14.00" fill="#ff0000">checkout &#45;&#45; &lt;filename&gt;</text>
</g>
<!-- C&#45;&gt;F -->
<g id="edge13" class="edge">
<title>C&#45;&gt;F</title>
<path fill="none" stroke="#0000ff" stroke-width="2" d="M314.8153,-513.4011C337.1512,-496.7659 363.0466,-472.7199 375.4302,-444 418.7264,-343.5881 355.1643,-212.939 323.079,-157.3405"/>
<polygon fill="#0000ff" stroke="#0000ff" stroke-width="2" points="325.9431,-155.3066 317.8533,-148.4651 319.911,-158.8582 325.9431,-155.3066"/>
<text text-anchor="middle" x="396.4302" y="-330.2" font-family="Times,serif" font-size="14.00" fill="#006400">否</text>
</g>
<!-- I -->
<g id="node9" class="node">
<title>I</title>
<polygon fill="none" stroke="#0000ff" stroke-width="2" points="649.4302,-420.4 530.8378,-402.4 649.4302,-384.4 768.0226,-402.4 649.4302,-420.4"/>
<text text-anchor="middle" x="649.4302" y="-398.2" font-family="Times,serif" font-size="14.00" fill="#ff0000">分支是否共享？</text>
</g>
<!-- D&#45;&gt;I -->
<g id="edge1" class="edge">
<title>D&#45;&gt;I</title>
<path fill="none" stroke="#0000ff" stroke-width="2" d="M561.3516,-504.782C582.3531,-480.37 610.2564,-447.9353 628.978,-426.1735"/>
<polygon fill="#0000ff" stroke="#0000ff" stroke-width="2" points="631.8017,-428.2579 635.6702,-418.3946 626.4952,-423.6927 631.8017,-428.2579"/>
<text text-anchor="middle" x="605.4302" y="-466.2" font-family="Times,serif" font-size="14.00" fill="#006400">否</text>
</g>
<!-- J -->
<g id="node10" class="node">
<title>J</title>
<polygon fill="none" stroke="#0000ff" stroke-width="2" points="558.6378,-148.4 448.2226,-148.4 448.2226,-112.4 558.6378,-112.4 558.6378,-148.4"/>
<text text-anchor="middle" x="503.4302" y="-126.2" font-family="Times,serif" font-size="14.00" fill="#ff0000">revert &lt;commit&gt;</text>
</g>
<!-- D&#45;&gt;J -->
<g id="edge2" class="edge">
<title>D&#45;&gt;J</title>
<path fill="none" stroke="#0000ff" stroke-width="2" d="M525.4281,-498.6057C517.754,-452.8079 505.9342,-375.2513 501.4302,-308 498.9592,-271.1049 501.0386,-261.7757 501.4302,-224.8 501.6653,-202.6021 502.2114,-177.4731 502.6736,-158.7257"/>
<polygon fill="#0000ff" stroke="#0000ff" stroke-width="2" points="506.1783,-158.5809 502.933,-148.4953 499.1805,-158.4033 506.1783,-158.5809"/>
<text text-anchor="middle" x="511.8215" y="-330.2" font-family="Times,serif" font-size="14.00" fill="#006400">是</text>
</g>
<!-- G -->
<g id="node7" class="node">
<title>G</title>
<polygon fill="none" stroke="#0000ff" stroke-width="2" points="336.5517,-284.4 256.3087,-284.4 256.3087,-248.4 336.5517,-248.4 336.5517,-284.4"/>
<text text-anchor="middle" x="296.4302" y="-262.2" font-family="Times,serif" font-size="14.00" fill="#ff0000">reset &#45;&#45;hard</text>
</g>
<!-- E&#45;&gt;G -->
<g id="edge15" class="edge">
<title>E&#45;&gt;G</title>
<path fill="none" stroke="#0000ff" stroke-width="2" d="M212.8246,-367.0226C232.2219,-343.6772 257.2052,-313.6088 274.7916,-292.443"/>
<polygon fill="#0000ff" stroke="#0000ff" stroke-width="2" points="277.6748,-294.4495 281.3736,-284.5213 272.2908,-289.976 277.6748,-294.4495"/>
<text text-anchor="middle" x="254.4302" y="-330.2" font-family="Times,serif" font-size="14.00" fill="#006400">否</text>
</g>
<!-- H -->
<g id="node8" class="node">
<title>H</title>
<polygon fill="none" stroke="#0000ff" stroke-width="2" points="238.621,-284.4 128.2394,-284.4 128.2394,-248.4 238.621,-248.4 238.621,-284.4"/>
<text text-anchor="middle" x="183.4302" y="-262.2" font-family="Times,serif" font-size="14.00" fill="#ff0000">reset &lt;filename&gt;</text>
</g>
<!-- E&#45;&gt;H -->
<g id="edge16" class="edge">
<title>E&#45;&gt;H</title>
<path fill="none" stroke="#0000ff" stroke-width="2" d="M183.4302,-360.4858C183.4302,-339.1174 183.4302,-313.6983 183.4302,-294.671"/>
<polygon fill="#0000ff" stroke="#0000ff" stroke-width="2" points="186.9303,-294.5553 183.4302,-284.5553 179.9303,-294.5554 186.9303,-294.5553"/>
<text text-anchor="middle" x="190.8215" y="-330.2" font-family="Times,serif" font-size="14.00" fill="#006400">是</text>
</g>
<!-- H&#45;&gt;F -->
<g id="edge17" class="edge">
<title>H&#45;&gt;F</title>
<path fill="none" stroke="#0000ff" stroke-width="2" d="M199.7637,-248.3403C221.1755,-224.6654 258.8664,-182.9908 283.2317,-156.0503"/>
<polygon fill="#0000ff" stroke="#0000ff" stroke-width="2" points="285.9173,-158.2988 290.0292,-148.5344 280.7256,-153.6034 285.9173,-158.2988"/>
</g>
<!-- K -->
<g id="node11" class="node">
<title>K</title>
<polygon fill="none" stroke="#0000ff" stroke-width="2" points="649.4302,-284.4 510.4675,-266.4 649.4302,-248.4 788.3929,-266.4 649.4302,-284.4"/>
<text text-anchor="middle" x="649.4302" y="-262.2" font-family="Times,serif" font-size="14.00" fill="#ff0000">不应该重写已有历史</text>
</g>
<!-- I&#45;&gt;K -->
<g id="edge3" class="edge">
<title>I&#45;&gt;K</title>
<path fill="none" stroke="#0000ff" stroke-width="2" d="M649.4302,-384.3403C649.4302,-361.4783 649.4302,-321.8314 649.4302,-294.8761"/>
<polygon fill="#0000ff" stroke="#0000ff" stroke-width="2" points="652.9303,-294.5344 649.4302,-284.5344 645.9303,-294.5345 652.9303,-294.5344"/>
<text text-anchor="middle" x="656.8215" y="-330.2" font-family="Times,serif" font-size="14.00" fill="#006400">是</text>
</g>
<!-- L -->
<g id="node12" class="node">
<title>L</title>
<polygon fill="none" stroke="#0000ff" stroke-width="2" points="945.4302,-308.1002 805.9346,-266.4 945.4302,-224.6998 1084.9258,-266.4 945.4302,-308.1002"/>
<text text-anchor="middle" x="945.4302" y="-270.6" font-family="Times,serif" font-size="14.00" fill="#ff0000">更改是否位于最新的</text>
<text text-anchor="middle" x="945.4302" y="-253.8" font-family="Times,serif" font-size="14.00" fill="#ff0000">（几个）提交中？</text>
</g>
<!-- I&#45;&gt;L -->
<g id="edge5" class="edge">
<title>I&#45;&gt;L</title>
<path fill="none" stroke="#0000ff" stroke-width="2" d="M678.894,-388.8626C725.6977,-367.3582 818.1449,-324.8824 880.8783,-296.059"/>
<polygon fill="#0000ff" stroke="#0000ff" stroke-width="2" points="882.6689,-299.0881 890.2944,-291.7327 879.7463,-292.7274 882.6689,-299.0881"/>
<text text-anchor="middle" x="822.4302" y="-330.2" font-family="Times,serif" font-size="14.00" fill="#006400">否</text>
</g>
<!-- K&#45;&gt;J -->
<g id="edge4" class="edge">
<title>K&#45;&gt;J</title>
<path fill="none" stroke="#0000ff" stroke-width="2" d="M632.3964,-250.5329C607.4001,-227.2487 560.5245,-183.5837 530.6998,-155.8019"/>
<polygon fill="#0000ff" stroke="#0000ff" stroke-width="2" points="532.8434,-153.0154 523.1406,-148.7603 528.0722,-158.1374 532.8434,-153.0154"/>
<text text-anchor="middle" x="592.8215" y="-194.2" font-family="Times,serif" font-size="14.00" fill="#006400">是</text>
</g>
<!-- M -->
<g id="node13" class="node">
<title>M</title>
<polygon fill="none" stroke="#0000ff" stroke-width="2" points="805.1482,-148.4 619.7122,-148.4 619.7122,-112.4 805.1482,-112.4 805.1482,-148.4"/>
<text text-anchor="middle" x="712.4302" y="-126.2" font-family="Times,serif" font-size="14.00" fill="#ff0000">rebase &#45;&#45;interactive &lt;commit&gt;</text>
</g>
<!-- L&#45;&gt;M -->
<g id="edge6" class="edge">
<title>L&#45;&gt;M</title>
<path fill="none" stroke="#0000ff" stroke-width="2" d="M897.9983,-238.7144C855.0736,-213.6597 792.57,-177.1769 752.2013,-153.6141"/>
<polygon fill="#0000ff" stroke="#0000ff" stroke-width="2" points="753.8408,-150.5184 743.4399,-148.5001 750.312,-156.5639 753.8408,-150.5184"/>
<text text-anchor="middle" x="850.4302" y="-194.2" font-family="Times,serif" font-size="14.00" fill="#006400">否</text>
</g>
<!-- N -->
<g id="node14" class="node">
<title>N</title>
<polygon fill="none" stroke="#0000ff" stroke-width="2" points="1034.4302,-172.1002 823.0698,-130.4 1034.4302,-88.6998 1245.7906,-130.4 1034.4302,-172.1002"/>
<text text-anchor="middle" x="1034.4302" y="-134.6" font-family="Times,serif" font-size="14.00" fill="#ff0000">这些修改是否位于</text>
<text text-anchor="middle" x="1034.4302" y="-117.8" font-family="Times,serif" font-size="14.00" fill="#ff0000">你想要保存的工作目录中？</text>
</g>
<!-- L&#45;&gt;N -->
<g id="edge7" class="edge">
<title>L&#45;&gt;N</title>
<path fill="none" stroke="#0000ff" stroke-width="2" d="M968.3499,-231.3766C979.3267,-214.6031 992.615,-194.2974 1004.3884,-176.3065"/>
<polygon fill="#0000ff" stroke="#0000ff" stroke-width="2" points="1007.4824,-177.9703 1010.0296,-167.6862 1001.6252,-174.1372 1007.4824,-177.9703"/>
<text text-anchor="middle" x="1002.8215" y="-194.2" font-family="Times,serif" font-size="14.00" fill="#006400">是</text>
</g>
<!-- O -->
<g id="node15" class="node">
<title>O</title>
<polygon fill="none" stroke="#0000ff" stroke-width="2" points="1034.6179,-36 892.2425,-36 892.2425,0 1034.6179,0 1034.6179,-36"/>
<text text-anchor="middle" x="963.4302" y="-13.8" font-family="Times,serif" font-size="14.00" fill="#ff0000">reset &#45;&#45;hard &lt;commit&gt;</text>
</g>
<!-- N&#45;&gt;O -->
<g id="edge8" class="edge">
<title>N&#45;&gt;O</title>
<path fill="none" stroke="#0000ff" stroke-width="2" d="M1010.9854,-93.2845C1000.9505,-77.3983 989.4573,-59.2034 980.2837,-44.6807"/>
<polygon fill="#0000ff" stroke="#0000ff" stroke-width="2" points="983.205,-42.7517 974.9054,-36.1663 977.2868,-46.4901 983.205,-42.7517"/>
<text text-anchor="middle" x="1002.4302" y="-58.2" font-family="Times,serif" font-size="14.00" fill="#006400">否</text>
</g>
<!-- P -->
<g id="node16" class="node">
<title>P</title>
<polygon fill="none" stroke="#0000ff" stroke-width="2" points="1156.9226,-36 1051.9378,-36 1051.9378,0 1156.9226,0 1156.9226,-36"/>
<text text-anchor="middle" x="1104.4302" y="-13.8" font-family="Times,serif" font-size="14.00" fill="#ff0000">reset &lt;commit&gt;</text>
</g>
<!-- N&#45;&gt;P -->
<g id="edge9" class="edge">
<title>N&#45;&gt;P</title>
<path fill="none" stroke="#0000ff" stroke-width="2" d="M1057.7392,-92.9724C1067.5267,-77.2564 1078.6923,-59.3277 1087.65,-44.9441"/>
<polygon fill="#0000ff" stroke="#0000ff" stroke-width="2" points="1090.8656,-46.4016 1093.1811,-36.0629 1084.9236,-42.7011 1090.8656,-46.4016"/>
<text text-anchor="middle" x="1088.8215" y="-58.2" font-family="Times,serif" font-size="14.00" fill="#006400">是</text>
</g>
</g>
</svg>
