<?xml version="1.0" encoding="UTF-8" standalone="no"?>
<!DOCTYPE svg PUBLIC "-//W3C//DTD SVG 1.1//EN"
 "http://www.w3.org/Graphics/SVG/1.1/DTD/svg11.dtd">
<!-- Generated by graphviz version 2.40.1 (20161225.0304)
 -->
<!-- Title: graph_name Pages: 1 -->
<svg width="2713pt" height="1260pt"
 viewBox="0.00 0.00 2713.35 1260.00" xmlns="http://www.w3.org/2000/svg" xmlns:xlink="http://www.w3.org/1999/xlink">
<g id="graph0" class="graph" transform="scale(1 1) rotate(0) translate(4 1256)">
<title>graph_name</title>
<polygon fill="#ffffff" stroke="transparent" points="-4,4 -4,-1256 2709.347,-1256 2709.347,4 -4,4"/>
<!-- AnnotationConfigApplicationContext -->
<g id="node1" class="node">
<title>AnnotationConfigApplicationContext</title>
<polygon fill="none" stroke="#0000ff" stroke-width="2" points="1621.633,-1102.7 1621.633,-1251.5 1933.15,-1251.5 1933.15,-1102.7 1621.633,-1102.7"/>
<text text-anchor="middle" x="1777.3915" y="-1234.9" font-family="Times,serif" font-size="14.00" fill="#ff0000">AnnotationConfigApplicationContext</text>
<polyline fill="none" stroke="#0000ff" stroke-width="2" points="1621.633,-1226.7 1933.15,-1226.7 "/>
<text text-anchor="middle" x="1652.9591" y="-1197.7" font-family="Times,serif" font-size="14.00" fill="#ff0000">attribute</text>
<polyline fill="none" stroke="#0000ff" stroke-width="2" points="1684.2852,-1177.1 1684.2852,-1226.7 "/>
<text text-anchor="middle" x="1808.7176" y="-1210.1" font-family="Times,serif" font-size="14.00" fill="#ff0000">AnnotatedBeanDefinitionReader reader</text>
<polyline fill="none" stroke="#0000ff" stroke-width="2" points="1684.2852,-1201.9 1933.15,-1201.9 "/>
<text text-anchor="middle" x="1808.7176" y="-1185.3" font-family="Times,serif" font-size="14.00" fill="#ff0000">ClassPathBeanDefinitionScanner scanner</text>
<polyline fill="none" stroke="#0000ff" stroke-width="2" points="1621.633,-1177.1 1933.15,-1177.1 "/>
<text text-anchor="middle" x="1653.9612" y="-1135.7" font-family="Times,serif" font-size="14.00" fill="#ff0000">function</text>
<polyline fill="none" stroke="#0000ff" stroke-width="2" points="1686.2894,-1102.7 1686.2894,-1177.1 "/>
<text text-anchor="middle" x="1809.3042" y="-1160.5" font-family="Times,serif" font-size="14.00" fill="#ff0000">register(Class componentClasses)</text>
<polyline fill="none" stroke="#0000ff" stroke-width="2" points="1686.2894,-1152.3 1932.319,-1152.3 "/>
<text text-anchor="middle" x="1809.3042" y="-1135.7" font-family="Times,serif" font-size="14.00" fill="#ff0000">scan(String... basePackages)</text>
<polyline fill="none" stroke="#0000ff" stroke-width="2" points="1686.2894,-1127.5 1932.319,-1127.5 "/>
<text text-anchor="middle" x="1809.3042" y="-1110.9" font-family="Times,serif" font-size="14.00" fill="#ff0000">AbstractApplicationContext类 refresh()</text>
</g>
<!-- AbstractApplicationContext -->
<g id="node2" class="node">
<title>AbstractApplicationContext</title>
<polygon fill="none" stroke="#0000ff" stroke-width="2" points="1129.6029,-916.9 1129.6029,-1065.7 1637.1801,-1065.7 1637.1801,-916.9 1129.6029,-916.9"/>
<text text-anchor="middle" x="1383.3915" y="-1049.1" font-family="Times,serif" font-size="14.00" fill="#ff0000">AbstractApplicationContext</text>
<polyline fill="none" stroke="#0000ff" stroke-width="2" points="1129.6029,-1040.9 1637.1801,-1040.9 "/>
<text text-anchor="middle" x="1160.9311" y="-974.7" font-family="Times,serif" font-size="14.00" fill="#ff0000">function</text>
<polyline fill="none" stroke="#0000ff" stroke-width="2" points="1192.2593,-916.9 1192.2593,-1040.9 "/>
<text text-anchor="middle" x="1414.7197" y="-1024.3" font-family="Times,serif" font-size="14.00" fill="#ff0000">ConfigurableListableBeanFactory beanFactory = obtainFreshBeanFactory();</text>
<polyline fill="none" stroke="#0000ff" stroke-width="2" points="1192.2593,-1016.1 1637.1801,-1016.1 "/>
<text text-anchor="middle" x="1414.7197" y="-999.5" font-family="Times,serif" font-size="14.00" fill="#ff0000">prepareBeanFactory(beanFactory);</text>
<polyline fill="none" stroke="#0000ff" stroke-width="2" points="1192.2593,-991.3 1637.1801,-991.3 "/>
<text text-anchor="middle" x="1414.7197" y="-974.7" font-family="Times,serif" font-size="14.00" fill="#ff0000">postProcessBeanFactory(beanFactory);</text>
<polyline fill="none" stroke="#0000ff" stroke-width="2" points="1192.2593,-966.5 1637.1801,-966.5 "/>
<text text-anchor="middle" x="1414.7197" y="-949.9" font-family="Times,serif" font-size="14.00" fill="#ff0000">invokeBeanFactoryPostProcessors(beanFactory);</text>
<polyline fill="none" stroke="#0000ff" stroke-width="2" points="1192.2593,-941.7 1637.1801,-941.7 "/>
<text text-anchor="middle" x="1414.7197" y="-925.1" font-family="Times,serif" font-size="14.00" fill="#ff0000">registerBeanPostProcessors(beanFactory);</text>
</g>
<!-- AnnotationConfigApplicationContext&#45;&gt;AbstractApplicationContext -->
<g id="edge6" class="edge">
<title>AnnotationConfigApplicationContext:f2&#45;&gt;AbstractApplicationContext</title>
<path fill="none" stroke="#0000ff" stroke-width="2" d="M1809.3915,-1103.1C1809.3915,-1062.0122 1734.3133,-1035.7189 1647.194,-1019.0396"/>
<polygon fill="#0000ff" stroke="#0000ff" stroke-width="2" points="1647.821,-1015.5963 1637.3489,-1017.2041 1646.538,-1022.4777 1647.821,-1015.5963"/>
</g>
<!-- ClassPathBeanDefinitionScanner -->
<g id="node6" class="node">
<title>ClassPathBeanDefinitionScanner</title>
<polygon fill="none" stroke="#0000ff" stroke-width="2" points="1683.7588,-198.5 1683.7588,-272.9 2309.0242,-272.9 2309.0242,-198.5 1683.7588,-198.5"/>
<text text-anchor="middle" x="1996.3915" y="-256.3" font-family="Times,serif" font-size="14.00" fill="#ff0000">ClassPathBeanDefinitionScanner</text>
<polyline fill="none" stroke="#0000ff" stroke-width="2" points="1683.7588,-248.1 2309.0242,-248.1 "/>
<text text-anchor="middle" x="1807.587" y="-231.5" font-family="Times,serif" font-size="14.00" fill="#ff0000">function</text>
<polyline fill="none" stroke="#0000ff" stroke-width="2" points="1931.4152,-223.3 1931.4152,-248.1 "/>
<text text-anchor="middle" x="2119.7736" y="-231.5" font-family="Times,serif" font-size="14.00" fill="#ff0000">doScan(String... basePackages)</text>
<polyline fill="none" stroke="#0000ff" stroke-width="2" points="1683.7588,-223.3 2309.0242,-223.3 "/>
<text text-anchor="middle" x="1715.087" y="-206.7" font-family="Times,serif" font-size="14.00" fill="#ff0000">function</text>
<polyline fill="none" stroke="#0000ff" stroke-width="2" points="1746.4152,-198.5 1746.4152,-223.3 "/>
<text text-anchor="middle" x="2027.7197" y="-206.7" font-family="Times,serif" font-size="14.00" fill="#ff0000">registerBeanDefinition(BeanDefinitionHolder definitionHolder, BeanDefinitionRegistry registry)</text>
</g>
<!-- AnnotationConfigApplicationContext&#45;&gt;ClassPathBeanDefinitionScanner -->
<g id="edge5" class="edge">
<title>AnnotationConfigApplicationContext:f1&#45;&gt;ClassPathBeanDefinitionScanner</title>
<path fill="none" stroke="#0000ff" stroke-width="2" d="M1932.3915,-1140.1C1949.2359,-1140.1 1942.1619,-1115.9213 1932.3915,-1102.2 1904.02,-1062.3559 1858.071,-1105.0796 1828.3915,-1066.2 1751.2277,-965.1166 1809.3915,-907.8696 1809.3915,-780.7 1809.3915,-780.7 1809.3915,-780.7 1809.3915,-545.3 1809.3915,-438.3298 1892.196,-336.6309 1947.6028,-280.5547"/>
<polygon fill="#0000ff" stroke="#0000ff" stroke-width="2" points="1950.2849,-282.8228 1954.8901,-273.2811 1945.3398,-277.8683 1950.2849,-282.8228"/>
</g>
<!-- AnnotatedBeanDefinitionReader -->
<g id="node12" class="node">
<title>AnnotatedBeanDefinitionReader</title>
<polygon fill="none" stroke="#0000ff" stroke-width="2" points="1837.0835,-954.1 1837.0835,-1028.5 2443.6995,-1028.5 2443.6995,-954.1 1837.0835,-954.1"/>
<text text-anchor="middle" x="2140.3915" y="-1011.9" font-family="Times,serif" font-size="14.00" fill="#ff0000">AnnotatedBeanDefinitionReader</text>
<polyline fill="none" stroke="#0000ff" stroke-width="2" points="1837.0835,-1003.7 2443.6995,-1003.7 "/>
<text text-anchor="middle" x="1868.4117" y="-975.1" font-family="Times,serif" font-size="14.00" fill="#ff0000">function</text>
<polyline fill="none" stroke="#0000ff" stroke-width="2" points="1899.7399,-954.1 1899.7399,-1003.7 "/>
<text text-anchor="middle" x="2171.7197" y="-987.1" font-family="Times,serif" font-size="14.00" fill="#ff0000">doRegisterBean(Class beanClass)</text>
<polyline fill="none" stroke="#0000ff" stroke-width="2" points="1899.7399,-978.9 2443.6995,-978.9 "/>
<text text-anchor="middle" x="2171.7197" y="-962.3" font-family="Times,serif" font-size="14.00" fill="#ff0000">AnnotatedBeanDefinitionReader(BeanDefinitionRegistry registry, Environment environment)</text>
</g>
<!-- AnnotationConfigApplicationContext&#45;&gt;AnnotatedBeanDefinitionReader -->
<g id="edge4" class="edge">
<title>AnnotationConfigApplicationContext:f0&#45;&gt;AnnotatedBeanDefinitionReader</title>
<path fill="none" stroke="#0000ff" stroke-width="2" d="M1932.3915,-1165.1C2012.4063,-1165.1 2077.8906,-1088.427 2112.8475,-1036.9328"/>
<polygon fill="#0000ff" stroke="#0000ff" stroke-width="2" points="2115.7762,-1038.8495 2118.3991,-1028.5845 2109.9473,-1034.9733 2115.7762,-1038.8495"/>
</g>
<!-- ConfigurationClassPostProcessor -->
<g id="node3" class="node">
<title>ConfigurationClassPostProcessor</title>
<polygon fill="none" stroke="#0000ff" stroke-width="2" points="798.9962,-743.5 798.9962,-817.9 1287.7868,-817.9 1287.7868,-743.5 798.9962,-743.5"/>
<text text-anchor="middle" x="1043.3915" y="-801.3" font-family="Times,serif" font-size="14.00" fill="#ff0000">ConfigurationClassPostProcessor BeanDefinitionRegistryPostProcessor</text>
<polyline fill="none" stroke="#0000ff" stroke-width="2" points="798.9962,-793.1 1287.7868,-793.1 "/>
<text text-anchor="middle" x="830.3244" y="-776.5" font-family="Times,serif" font-size="14.00" fill="#ff0000">function</text>
<polyline fill="none" stroke="#0000ff" stroke-width="2" points="861.6526,-768.3 861.6526,-793.1 "/>
<text text-anchor="middle" x="1074.7197" y="-776.5" font-family="Times,serif" font-size="14.00" fill="#ff0000">postProcessBeanFactory(ConfigurableListableBeanFactory beanFactory)</text>
<polyline fill="none" stroke="#0000ff" stroke-width="2" points="798.9962,-768.3 1287.7868,-768.3 "/>
<text text-anchor="middle" x="889.5488" y="-751.7" font-family="Times,serif" font-size="14.00" fill="#ff0000">type</text>
<polyline fill="none" stroke="#0000ff" stroke-width="2" points="980.1014,-743.5 980.1014,-768.3 "/>
<text text-anchor="middle" x="1133.6358" y="-751.7" font-family="Times,serif" font-size="14.00" fill="#ff0000">BeanFactoryPostProcessor</text>
</g>
<!-- AbstractApplicationContext&#45;&gt;ConfigurationClassPostProcessor -->
<g id="edge9" class="edge">
<title>AbstractApplicationContext:f6&#45;&gt;ConfigurationClassPostProcessor</title>
<path fill="none" stroke="#0000ff" stroke-width="2" d="M1637.3915,-954.3C1654.2359,-954.3 1648.6597,-928.9205 1637.3915,-916.4 1586.4176,-859.7614 1370.4012,-898.5337 1296.3915,-880.4 1239.8612,-866.5491 1179.1047,-842.9173 1131.3022,-822.1371"/>
<polygon fill="#0000ff" stroke="#0000ff" stroke-width="2" points="1132.4833,-818.8334 1121.9195,-818.0229 1129.6721,-825.2441 1132.4833,-818.8334"/>
</g>
<!-- AbstractRefreshableApplicationContext -->
<g id="node8" class="node">
<title>AbstractRefreshableApplicationContext</title>
<polygon fill="none" stroke="#0000ff" stroke-width="2" points="1321.5261,-508.1 1321.5261,-582.5 1781.2569,-582.5 1781.2569,-508.1 1321.5261,-508.1"/>
<text text-anchor="middle" x="1551.3915" y="-565.9" font-family="Times,serif" font-size="14.00" fill="#ff0000">AbstractRefreshableApplicationContext</text>
<polyline fill="none" stroke="#0000ff" stroke-width="2" points="1321.5261,-557.7 1781.2569,-557.7 "/>
<text text-anchor="middle" x="1417.8543" y="-541.1" font-family="Times,serif" font-size="14.00" fill="#ff0000">function</text>
<polyline fill="none" stroke="#0000ff" stroke-width="2" points="1514.1825,-532.9 1514.1825,-557.7 "/>
<text text-anchor="middle" x="1647.5353" y="-541.1" font-family="Times,serif" font-size="14.00" fill="#ff0000">refreshBeanFactory()</text>
<polyline fill="none" stroke="#0000ff" stroke-width="2" points="1321.5261,-532.9 1781.2569,-532.9 "/>
<text text-anchor="middle" x="1361.2207" y="-516.3" font-family="Times,serif" font-size="14.00" fill="#ff0000">关键代码</text>
<polyline fill="none" stroke="#0000ff" stroke-width="2" points="1400.9153,-508.1 1400.9153,-532.9 "/>
<text text-anchor="middle" x="1591.0861" y="-516.3" font-family="Times,serif" font-size="14.00" fill="#ff0000">DefaultListableBeanFactory beanFactory = createBeanFactory();</text>
</g>
<!-- AbstractApplicationContext&#45;&gt;AbstractRefreshableApplicationContext -->
<g id="edge7" class="edge">
<title>AbstractApplicationContext:f4&#45;&gt;AbstractRefreshableApplicationContext</title>
<path fill="none" stroke="#a020f0" stroke-width="2" d="M1637.3915,-1028.3C1813.7577,-1028.3 1648.547,-712.2952 1578.9467,-591.4928"/>
<polygon fill="#a020f0" stroke="#a020f0" stroke-width="2" points="1581.9504,-589.6954 1573.9079,-582.7983 1575.8939,-593.2053 1581.9504,-589.6954"/>
</g>
<!-- ApplicationContextAwareProcessor -->
<g id="node10" class="node">
<title>ApplicationContextAwareProcessor</title>
<polygon fill="none" stroke="#0000ff" stroke-width="2" points="1305.3136,-755.9 1305.3136,-805.5 1523.4694,-805.5 1523.4694,-755.9 1305.3136,-755.9"/>
<text text-anchor="middle" x="1414.3915" y="-788.9" font-family="Times,serif" font-size="14.00" fill="#ff0000">ApplicationContextAwareProcessor</text>
<polyline fill="none" stroke="#0000ff" stroke-width="2" points="1305.3136,-780.7 1523.4694,-780.7 "/>
<text text-anchor="middle" x="1338.8662" y="-764.1" font-family="Times,serif" font-size="14.00" fill="#ff0000">type</text>
<polyline fill="none" stroke="#0000ff" stroke-width="2" points="1372.4188,-755.9 1372.4188,-780.7 "/>
<text text-anchor="middle" x="1447.5717" y="-764.1" font-family="Times,serif" font-size="14.00" fill="#ff0000">BeanPostProcessor</text>
</g>
<!-- AbstractApplicationContext&#45;&gt;ApplicationContextAwareProcessor -->
<g id="edge8" class="edge">
<title>AbstractApplicationContext:f5&#45;&gt;ApplicationContextAwareProcessor</title>
<path fill="none" stroke="#ff0000" stroke-width="2" d="M1637.3915,-1003.3C1676.0137,-1003.3 1659.5998,-947.9985 1637.3915,-916.4 1610.2298,-877.7535 1578.5395,-903.598 1537.3915,-880.4 1504.2613,-861.7222 1471.0138,-834.111 1447.4533,-812.6788"/>
<polygon fill="#ff0000" stroke="#ff0000" stroke-width="2" points="1449.5738,-809.8733 1439.8488,-805.6692 1444.8294,-815.0203 1449.5738,-809.8733"/>
</g>
<!-- PostProcessorRegistrationDelegate -->
<g id="node11" class="node">
<title>PostProcessorRegistrationDelegate</title>
<polygon fill="none" stroke="#0000ff" stroke-width="2" points="0,-755.9 0,-805.5 780.783,-805.5 780.783,-755.9 0,-755.9"/>
<text text-anchor="middle" x="390.3915" y="-788.9" font-family="Times,serif" font-size="14.00" fill="#ff0000">PostProcessorRegistrationDelegate</text>
<polyline fill="none" stroke="#0000ff" stroke-width="2" points="0,-780.7 780.783,-780.7 "/>
<text text-anchor="middle" x="31.3282" y="-764.1" font-family="Times,serif" font-size="14.00" fill="#ff0000">function</text>
<polyline fill="none" stroke="#0000ff" stroke-width="2" points="62.6564,-755.9 62.6564,-780.7 "/>
<text text-anchor="middle" x="421.7197" y="-764.1" font-family="Times,serif" font-size="14.00" fill="#ff0000">registerBeanPostProcessors(ConfigurableListableBeanFactory beanFactory, AbstractApplicationContext applicationContext)</text>
</g>
<!-- AbstractApplicationContext&#45;&gt;PostProcessorRegistrationDelegate -->
<g id="edge10" class="edge">
<title>AbstractApplicationContext:f7&#45;&gt;PostProcessorRegistrationDelegate</title>
<path fill="none" stroke="#00ff00" stroke-width="2" d="M1414.3915,-917.3C1414.3915,-882.5728 824.7201,-885.6469 790.3915,-880.4 682.467,-863.9045 561.1298,-831.6657 480.6879,-808.3037"/>
<polygon fill="#00ff00" stroke="#00ff00" stroke-width="2" points="481.6644,-804.9427 471.0842,-805.5003 479.7029,-811.6623 481.6644,-804.9427"/>
</g>
<!-- ConfigurationClassParser -->
<g id="node4" class="node">
<title>ConfigurationClassParser</title>
<polygon fill="none" stroke="#0000ff" stroke-width="2" points="577.0639,-446.1 577.0639,-644.5 1155.7191,-644.5 1155.7191,-446.1 577.0639,-446.1"/>
<text text-anchor="middle" x="866.3915" y="-627.9" font-family="Times,serif" font-size="14.00" fill="#ff0000">ConfigurationClassParser</text>
<polyline fill="none" stroke="#0000ff" stroke-width="2" points="577.0639,-619.7 1155.7191,-619.7 "/>
<text text-anchor="middle" x="608.3921" y="-603.1" font-family="Times,serif" font-size="14.00" fill="#ff0000">function</text>
<polyline fill="none" stroke="#0000ff" stroke-width="2" points="639.7203,-594.9 639.7203,-619.7 "/>
<text text-anchor="middle" x="897.7197" y="-603.1" font-family="Times,serif" font-size="14.00" fill="#ff0000">doProcessConfigurationClass(ConfigurationClass configClass, SourceClass sourceClass)</text>
<polyline fill="none" stroke="#0000ff" stroke-width="2" points="577.0639,-594.9 1155.7191,-594.9 "/>
<text text-anchor="middle" x="630.0085" y="-516.3" font-family="Times,serif" font-size="14.00" fill="#ff0000">处理注解</text>
<polyline fill="none" stroke="#0000ff" stroke-width="2" points="682.9531,-446.1 682.9531,-594.9 "/>
<text text-anchor="middle" x="919.2631" y="-578.3" font-family="Times,serif" font-size="14.00" fill="#ff0000">@PropertySource</text>
<polyline fill="none" stroke="#0000ff" stroke-width="2" points="682.9531,-570.1 1155.5731,-570.1 "/>
<text text-anchor="middle" x="919.2631" y="-553.5" font-family="Times,serif" font-size="14.00" fill="#ff0000">@ComponentScan</text>
<polyline fill="none" stroke="#0000ff" stroke-width="2" points="682.9531,-545.3 1155.5731,-545.3 "/>
<text text-anchor="middle" x="723.9506" y="-516.3" font-family="Times,serif" font-size="14.00" fill="#ff0000">@Import</text>
<polyline fill="none" stroke="#0000ff" stroke-width="2" points="764.9481,-495.7 764.9481,-545.3 "/>
<text text-anchor="middle" x="960.2606" y="-528.7" font-family="Times,serif" font-size="14.00" fill="#ff0000">ImportSelector configurationClasses</text>
<polyline fill="none" stroke="#0000ff" stroke-width="2" points="764.9481,-520.5 1155.5731,-520.5 "/>
<text text-anchor="middle" x="960.2606" y="-503.9" font-family="Times,serif" font-size="14.00" fill="#ff0000">ImportBeanDefinitionRegistrar importBeanDefinitionRegistrars</text>
<polyline fill="none" stroke="#0000ff" stroke-width="2" points="682.9531,-495.7 1155.5731,-495.7 "/>
<text text-anchor="middle" x="919.2631" y="-479.1" font-family="Times,serif" font-size="14.00" fill="#ff0000">@ImportResource</text>
<polyline fill="none" stroke="#0000ff" stroke-width="2" points="682.9531,-470.9 1155.5731,-470.9 "/>
<text text-anchor="middle" x="919.2631" y="-454.3" font-family="Times,serif" font-size="14.00" fill="#ff0000">@Bean</text>
</g>
<!-- ConfigurationClassPostProcessor&#45;&gt;ConfigurationClassParser -->
<g id="edge12" class="edge">
<title>ConfigurationClassPostProcessor&#45;&gt;ConfigurationClassParser</title>
<path fill="none" stroke="#0000ff" stroke-width="2" d="M1015.3453,-743.4002C996.8784,-718.8402 971.6845,-685.3337 947.2699,-652.8637"/>
<polygon fill="#0000ff" stroke="#0000ff" stroke-width="2" points="949.8914,-650.5263 941.0842,-644.637 944.2965,-654.7331 949.8914,-650.5263"/>
</g>
<!-- ComponentScanAnnotationParser -->
<g id="node7" class="node">
<title>ComponentScanAnnotationParser</title>
<polygon fill="none" stroke="#0000ff" stroke-width="2" points="1141.5348,-334.7 1141.5348,-384.3 1627.2482,-384.3 1627.2482,-334.7 1141.5348,-334.7"/>
<text text-anchor="middle" x="1384.3915" y="-367.7" font-family="Times,serif" font-size="14.00" fill="#ff0000">ComponentScanAnnotationParser</text>
<polyline fill="none" stroke="#0000ff" stroke-width="2" points="1141.5348,-359.5 1627.2482,-359.5 "/>
<text text-anchor="middle" x="1172.863" y="-342.9" font-family="Times,serif" font-size="14.00" fill="#ff0000">function</text>
<polyline fill="none" stroke="#0000ff" stroke-width="2" points="1204.1912,-334.7 1204.1912,-359.5 "/>
<text text-anchor="middle" x="1415.7197" y="-342.9" font-family="Times,serif" font-size="14.00" fill="#ff0000">parse(AnnotationAttributes componentScan, final String declaringClass)</text>
</g>
<!-- ConfigurationClassParser&#45;&gt;ComponentScanAnnotationParser -->
<g id="edge13" class="edge">
<title>ConfigurationClassParser:f3&#45;&gt;ComponentScanAnnotationParser</title>
<path fill="none" stroke="#a020f0" stroke-width="2" d="M1155.3915,-557.3C1205.3151,-557.3 1307.3331,-448.2739 1356.5756,-392.109"/>
<polygon fill="#a020f0" stroke="#a020f0" stroke-width="2" points="1359.2306,-394.3897 1363.1627,-384.5515 1353.9537,-389.7902 1359.2306,-394.3897"/>
</g>
<!-- ConfigurationClassBeanDefinitionReader -->
<g id="node14" class="node">
<title>ConfigurationClassBeanDefinitionReader</title>
<polygon fill="none" stroke="#0000ff" stroke-width="2" points="437.5111,-309.9 437.5111,-409.1 1123.2719,-409.1 1123.2719,-309.9 437.5111,-309.9"/>
<text text-anchor="middle" x="780.3915" y="-392.5" font-family="Times,serif" font-size="14.00" fill="#ff0000">ConfigurationClassBeanDefinitionReader</text>
<polyline fill="none" stroke="#0000ff" stroke-width="2" points="437.5111,-384.3 1123.2719,-384.3 "/>
<text text-anchor="middle" x="468.8393" y="-343.2" font-family="Times,serif" font-size="14.00" fill="#ff0000">function</text>
<polyline fill="none" stroke="#0000ff" stroke-width="2" points="500.1675,-309.9 500.1675,-384.3 "/>
<text text-anchor="middle" x="811.7197" y="-367.7" font-family="Times,serif" font-size="14.00" fill="#ff0000">loadBeanDefinitions(Set&lt;ConfigurationClass&gt; configurationModel)</text>
<polyline fill="none" stroke="#0000ff" stroke-width="2" points="500.1675,-359.5 1123.2719,-359.5 "/>
<text text-anchor="middle" x="811.7197" y="-342.9" font-family="Times,serif" font-size="14.00" fill="#ff0000">registerBeanDefinitionForImportedConfigurationClass(ConfigurationClass configClass)</text>
<polyline fill="none" stroke="#0000ff" stroke-width="2" points="500.1675,-334.7 1123.2719,-334.7 "/>
<text text-anchor="middle" x="811.7197" y="-318.1" font-family="Times,serif" font-size="14.00" fill="#ff0000">loadBeanDefinitionsFromRegistrars(Map&lt;ImportBeanDefinitionRegistrar, AnnotationMetadata&gt; registrars)</text>
</g>
<!-- ConfigurationClassParser&#45;&gt;ConfigurationClassBeanDefinitionReader -->
<g id="edge14" class="edge">
<title>ConfigurationClassParser:f11&#45;&gt;ConfigurationClassBeanDefinitionReader:f13</title>
<path fill="none" stroke="#ff0000" stroke-width="2" d="M1155.3915,-533.3C1194.3693,-533.3 1166.3228,-483.0136 1155.3915,-445.6 1150.0667,-427.3753 1139.0129,-427.3947 1132.3915,-409.6 1128.7443,-399.7984 1133.349,-369.768 1129.9966,-355.3653"/>
<polygon fill="#ff0000" stroke="#ff0000" stroke-width="2" points="1132.5027,-352.9071 1123.3915,-347.5 1127.1422,-357.4088 1132.5027,-352.9071"/>
</g>
<!-- ConfigurationClassParser&#45;&gt;ConfigurationClassBeanDefinitionReader -->
<g id="edge15" class="edge">
<title>ConfigurationClassParser:f12&#45;&gt;ConfigurationClassBeanDefinitionReader:f14</title>
<path fill="none" stroke="#00ff00" stroke-width="2" d="M1155.3915,-508.3C1183.2582,-508.3 1162.9392,-472.4251 1155.3915,-445.6 1150.3128,-427.5498 1139.3727,-427.3716 1133.3915,-409.6 1126.2598,-388.4101 1139.8573,-324.4932 1123.2719,-309.5 1111.7492,-299.0834 870.233,-293.4183 820.355,-304.8407"/>
<polygon fill="#00ff00" stroke="#00ff00" stroke-width="2" points="818.6501,-301.7823 811.3915,-309.5 821.8787,-307.9933 818.6501,-301.7823"/>
</g>
<!-- AnnotationConfigUtils -->
<g id="node5" class="node">
<title>AnnotationConfigUtils</title>
<polygon fill="none" stroke="#0000ff" stroke-width="2" points="1837.5362,-681.5 1837.5362,-879.9 2309.2468,-879.9 2309.2468,-681.5 1837.5362,-681.5"/>
<text text-anchor="middle" x="2073.3915" y="-863.3" font-family="Times,serif" font-size="14.00" fill="#ff0000">AnnotationConfigUtils</text>
<polyline fill="none" stroke="#0000ff" stroke-width="2" points="1837.5362,-855.1 2309.2468,-855.1 "/>
<text text-anchor="middle" x="1868.8644" y="-838.5" font-family="Times,serif" font-size="14.00" fill="#ff0000">function</text>
<polyline fill="none" stroke="#0000ff" stroke-width="2" points="1900.1926,-830.3 1900.1926,-855.1 "/>
<text text-anchor="middle" x="2104.7197" y="-838.5" font-family="Times,serif" font-size="14.00" fill="#ff0000">registerAnnotationConfigProcessors(BeanDefinitionRegistry registry)</text>
<polyline fill="none" stroke="#0000ff" stroke-width="2" points="1837.5362,-830.3 2309.2468,-830.3 "/>
<text text-anchor="middle" x="1916.485" y="-751.7" font-family="Times,serif" font-size="14.00" fill="#ff0000">默认后置处理器</text>
<polyline fill="none" stroke="#0000ff" stroke-width="2" points="1995.4338,-681.5 1995.4338,-830.3 "/>
<text text-anchor="middle" x="2151.9237" y="-813.7" font-family="Times,serif" font-size="14.00" fill="#ff0000">ConfigurationClassPostProcessor.class</text>
<polyline fill="none" stroke="#0000ff" stroke-width="2" points="1995.4338,-805.5 2308.4136,-805.5 "/>
<text text-anchor="middle" x="2151.9237" y="-788.9" font-family="Times,serif" font-size="14.00" fill="#ff0000">AutowiredAnnotationBeanPostProcessor.class</text>
<polyline fill="none" stroke="#0000ff" stroke-width="2" points="1995.4338,-780.7 2308.4136,-780.7 "/>
<text text-anchor="middle" x="2151.9237" y="-764.1" font-family="Times,serif" font-size="14.00" fill="#ff0000">CommonAnnotationBeanPostProcessor.class</text>
<polyline fill="none" stroke="#0000ff" stroke-width="2" points="1995.4338,-755.9 2308.4136,-755.9 "/>
<text text-anchor="middle" x="2151.9237" y="-739.3" font-family="Times,serif" font-size="14.00" fill="#ff0000">PersistenceAnnotationBeanPostProcessor.class</text>
<polyline fill="none" stroke="#0000ff" stroke-width="2" points="1995.4338,-731.1 2308.4136,-731.1 "/>
<text text-anchor="middle" x="2151.9237" y="-714.5" font-family="Times,serif" font-size="14.00" fill="#ff0000">EventListenerMethodProcessor.class</text>
<polyline fill="none" stroke="#0000ff" stroke-width="2" points="1995.4338,-706.3 2308.4136,-706.3 "/>
<text text-anchor="middle" x="2151.9237" y="-689.7" font-family="Times,serif" font-size="14.00" fill="#ff0000">DefaultEventListenerFactory.class</text>
</g>
<!-- BeanDefinitionReaderUtils -->
<g id="node13" class="node">
<title>BeanDefinitionReaderUtils</title>
<polygon fill="none" stroke="#0000ff" stroke-width="2" points="1683.7588,-111.9 1683.7588,-161.5 2309.0242,-161.5 2309.0242,-111.9 1683.7588,-111.9"/>
<text text-anchor="middle" x="1996.3915" y="-144.9" font-family="Times,serif" font-size="14.00" fill="#ff0000">BeanDefinitionReaderUtils</text>
<polyline fill="none" stroke="#0000ff" stroke-width="2" points="1683.7588,-136.7 2309.0242,-136.7 "/>
<text text-anchor="middle" x="1715.087" y="-120.1" font-family="Times,serif" font-size="14.00" fill="#ff0000">function</text>
<polyline fill="none" stroke="#0000ff" stroke-width="2" points="1746.4152,-111.9 1746.4152,-136.7 "/>
<text text-anchor="middle" x="2027.7197" y="-120.1" font-family="Times,serif" font-size="14.00" fill="#ff0000">registerBeanDefinition(BeanDefinitionHolder definitionHolder, BeanDefinitionRegistry registry)</text>
</g>
<!-- ClassPathBeanDefinitionScanner&#45;&gt;BeanDefinitionReaderUtils -->
<g id="edge17" class="edge">
<title>ClassPathBeanDefinitionScanner&#45;&gt;BeanDefinitionReaderUtils</title>
<path fill="none" stroke="#0000ff" stroke-width="2" d="M1996.3915,-198.2723C1996.3915,-189.5525 1996.3915,-180.3003 1996.3915,-171.6905"/>
<polygon fill="#0000ff" stroke="#0000ff" stroke-width="2" points="1999.8916,-171.586 1996.3915,-161.586 1992.8916,-171.5861 1999.8916,-171.586"/>
</g>
<!-- ComponentScanAnnotationParser&#45;&gt;ClassPathBeanDefinitionScanner -->
<g id="edge16" class="edge">
<title>ComponentScanAnnotationParser&#45;&gt;ClassPathBeanDefinitionScanner</title>
<path fill="none" stroke="#0000ff" stroke-width="2" d="M1507.1351,-334.6705C1591.6417,-317.5759 1705.6697,-294.5094 1802.3835,-274.9454"/>
<polygon fill="#0000ff" stroke="#0000ff" stroke-width="2" points="1803.1772,-278.3558 1812.2847,-272.9425 1801.7893,-271.4948 1803.1772,-278.3558"/>
</g>
<!-- DefaultListableBeanFactory -->
<g id="node9" class="node">
<title>DefaultListableBeanFactory</title>
<polygon fill="none" stroke="#0000ff" stroke-width="2" points="1408.0779,-.5 1408.0779,-74.9 1902.7051,-74.9 1902.7051,-.5 1408.0779,-.5"/>
<text text-anchor="middle" x="1655.3915" y="-58.3" font-family="Times,serif" font-size="14.00" fill="#ff0000">DefaultListableBeanFactory</text>
<polyline fill="none" stroke="#0000ff" stroke-width="2" points="1408.0779,-50.1 1902.7051,-50.1 "/>
<text text-anchor="middle" x="1515.904" y="-33.5" font-family="Times,serif" font-size="14.00" fill="#ff0000">attribute</text>
<polyline fill="none" stroke="#0000ff" stroke-width="2" points="1623.7301,-25.3 1623.7301,-50.1 "/>
<text text-anchor="middle" x="1763.0464" y="-33.5" font-family="Times,serif" font-size="14.00" fill="#ff0000">beanDefinitionMap</text>
<polyline fill="none" stroke="#0000ff" stroke-width="2" points="1408.0779,-25.3 1902.7051,-25.3 "/>
<text text-anchor="middle" x="1439.4061" y="-8.7" font-family="Times,serif" font-size="14.00" fill="#ff0000">function</text>
<polyline fill="none" stroke="#0000ff" stroke-width="2" points="1470.7343,-.5 1470.7343,-25.3 "/>
<text text-anchor="middle" x="1686.7197" y="-8.7" font-family="Times,serif" font-size="14.00" fill="#ff0000">registerBeanDefinition(String beanName, BeanDefinition beanDefinition)</text>
</g>
<!-- AbstractRefreshableApplicationContext&#45;&gt;DefaultListableBeanFactory -->
<g id="edge11" class="edge">
<title>AbstractRefreshableApplicationContext&#45;&gt;DefaultListableBeanFactory</title>
<path fill="none" stroke="#0000ff" stroke-width="2" d="M1582.208,-507.8565C1601.5766,-481.9679 1624.9851,-445.791 1636.3915,-409.6 1671.7235,-297.4965 1666.4537,-157.0475 1660.4316,-85.0559"/>
<polygon fill="#0000ff" stroke="#0000ff" stroke-width="2" points="1663.9049,-84.5975 1659.5424,-74.9425 1656.9318,-85.2106 1663.9049,-84.5975"/>
</g>
<!-- AnnotatedBeanDefinitionReader&#45;&gt;AnnotationConfigUtils -->
<g id="edge20" class="edge">
<title>AnnotatedBeanDefinitionReader:f9&#45;&gt;AnnotationConfigUtils</title>
<path fill="none" stroke="#0000ff" stroke-width="2" d="M2171.3915,-954.3C2171.3915,-931.9903 2165.178,-909.909 2155.88,-889.3555"/>
<polygon fill="#0000ff" stroke="#0000ff" stroke-width="2" points="2159.0361,-887.8424 2151.5597,-880.3354 2152.7229,-890.8662 2159.0361,-887.8424"/>
</g>
<!-- AnnotatedBeanDefinitionReader&#45;&gt;BeanDefinitionReaderUtils -->
<g id="edge18" class="edge">
<title>AnnotatedBeanDefinitionReader:f10&#45;&gt;BeanDefinitionReaderUtils</title>
<path fill="none" stroke="#0000ff" stroke-width="2" d="M2443.3915,-991.3C2460.1471,-991.3 2445.5138,-970.2206 2443.3915,-953.6 2419.6447,-767.6277 2337.3915,-732.7823 2337.3915,-545.3 2337.3915,-545.3 2337.3915,-545.3 2337.3915,-359.5 2337.3915,-287.2272 2367.6497,-250.8865 2318.3915,-198 2304.8621,-183.474 2274.7924,-172.3127 2238.2025,-163.7609"/>
<polygon fill="#0000ff" stroke="#0000ff" stroke-width="2" points="2238.7675,-160.3008 2228.2442,-161.5303 2237.2373,-167.1316 2238.7675,-160.3008"/>
</g>
<!-- BeanDefinitionReaderUtils&#45;&gt;DefaultListableBeanFactory -->
<g id="edge19" class="edge">
<title>BeanDefinitionReaderUtils&#45;&gt;DefaultListableBeanFactory</title>
<path fill="none" stroke="#0000ff" stroke-width="2" d="M1910.783,-111.8459C1875.2424,-101.5277 1833.0949,-89.2913 1793.3895,-77.7639"/>
<polygon fill="#0000ff" stroke="#0000ff" stroke-width="2" points="1794.2022,-74.3554 1783.6229,-74.9285 1792.2505,-81.0779 1794.2022,-74.3554"/>
</g>
<!-- ConfigurationClassBeanDefinitionReader&#45;&gt;DefaultListableBeanFactory -->
<g id="edge21" class="edge">
<title>ConfigurationClassBeanDefinitionReader:f13&#45;&gt;DefaultListableBeanFactory</title>
<path fill="none" stroke="#0000ff" stroke-width="2" d="M1123.3915,-347.5C1140.7909,-347.5 1121.6987,-323.1259 1132.3915,-309.4 1225.5271,-189.8456 1385.9624,-117.6826 1504.6458,-78.0926"/>
<polygon fill="#0000ff" stroke="#0000ff" stroke-width="2" points="1505.7911,-81.4004 1514.1941,-74.9475 1503.601,-74.7518 1505.7911,-81.4004"/>
</g>
<!-- ConfigurationClassBeanDefinitionReader&#45;&gt;DefaultListableBeanFactory -->
<g id="edge22" class="edge">
<title>ConfigurationClassBeanDefinitionReader:f14&#45;&gt;DefaultListableBeanFactory</title>
<path fill="none" stroke="#0000ff" stroke-width="2" d="M1123.3915,-322.5C1130.7091,-322.5 1161.7676,-203.6715 1166.3915,-198 1214.0646,-139.5258 1242.1482,-138.9288 1312.3915,-111.4 1346.7488,-97.9352 1384.0551,-86.7157 1420.9904,-77.433"/>
<polygon fill="#0000ff" stroke="#0000ff" stroke-width="2" points="1422.0116,-80.786 1430.8809,-74.9906 1420.3334,-73.9901 1422.0116,-80.786"/>
</g>
<!-- AspectJAutoProxyRegistrar -->
<g id="node15" class="node">
<title>AspectJAutoProxyRegistrar</title>
<polygon fill="none" stroke="#0000ff" stroke-width="2" points="2365.436,-210.9 2365.436,-260.5 2705.347,-260.5 2705.347,-210.9 2365.436,-210.9"/>
<text text-anchor="middle" x="2535.3915" y="-243.9" font-family="Times,serif" font-size="14.00" fill="#ff0000">AspectJAutoProxyRegistrar(@EnableAspectJAutoProxy)</text>
<polyline fill="none" stroke="#0000ff" stroke-width="2" points="2365.436,-235.7 2705.347,-235.7 "/>
<text text-anchor="middle" x="2428.2642" y="-219.1" font-family="Times,serif" font-size="14.00" fill="#ff0000">function</text>
<polyline fill="none" stroke="#0000ff" stroke-width="2" points="2491.0924,-210.9 2491.0924,-235.7 "/>
<text text-anchor="middle" x="2597.9578" y="-219.1" font-family="Times,serif" font-size="14.00" fill="#ff0000">registerBeanDefinitions</text>
</g>
<!-- AopConfigUtils -->
<g id="node16" class="node">
<title>AopConfigUtils</title>
<polygon fill="none" stroke="#0000ff" stroke-width="2" points="2363.2785,-111.9 2363.2785,-161.5 2635.5045,-161.5 2635.5045,-111.9 2363.2785,-111.9"/>
<text text-anchor="middle" x="2499.3915" y="-144.9" font-family="Times,serif" font-size="14.00" fill="#ff0000">AopConfigUtils</text>
<polyline fill="none" stroke="#0000ff" stroke-width="2" points="2363.2785,-136.7 2635.5045,-136.7 "/>
<text text-anchor="middle" x="2394.6067" y="-120.1" font-family="Times,serif" font-size="14.00" fill="#ff0000">function</text>
<polyline fill="none" stroke="#0000ff" stroke-width="2" points="2425.9349,-111.9 2425.9349,-136.7 "/>
<text text-anchor="middle" x="2530.7197" y="-120.1" font-family="Times,serif" font-size="14.00" fill="#ff0000">registerOrEscalateApcAsRequired</text>
</g>
<!-- AspectJAutoProxyRegistrar&#45;&gt;AopConfigUtils -->
<g id="edge1" class="edge">
<title>AspectJAutoProxyRegistrar&#45;&gt;AopConfigUtils</title>
<path fill="none" stroke="#0000ff" stroke-width="2" d="M2526.3072,-210.7181C2521.9584,-198.7589 2516.6807,-184.2452 2511.9548,-171.249"/>
<polygon fill="#0000ff" stroke="#0000ff" stroke-width="2" points="2515.1797,-169.8757 2508.4729,-161.6739 2508.6011,-172.268 2515.1797,-169.8757"/>
</g>
<!-- AopConfigUtils&#45;&gt;DefaultListableBeanFactory -->
<g id="edge2" class="edge">
<title>AopConfigUtils&#45;&gt;DefaultListableBeanFactory</title>
<path fill="none" stroke="#0000ff" stroke-width="2" d="M2363.0586,-117.2245C2347.9949,-115.1974 2332.8734,-113.2167 2318.3915,-111.4 2184.8259,-94.6449 2035.8719,-77.9116 1913.0373,-64.6342"/>
<polygon fill="#0000ff" stroke="#0000ff" stroke-width="2" points="1913.0585,-61.1163 1902.7406,-63.5227 1912.3071,-68.0758 1913.0585,-61.1163"/>
</g>
<!-- AbstractAutoProxyCreator -->
<g id="node17" class="node">
<title>AbstractAutoProxyCreator</title>
<polygon fill="none" stroke="#0000ff" stroke-width="2" points="2372.9777,-12.9 2372.9777,-62.5 2625.8053,-62.5 2625.8053,-12.9 2372.9777,-12.9"/>
<text text-anchor="middle" x="2499.3915" y="-45.9" font-family="Times,serif" font-size="14.00" fill="#ff0000">AbstractAutoProxyCreator</text>
<polyline fill="none" stroke="#0000ff" stroke-width="2" points="2372.9777,-37.7 2625.8053,-37.7 "/>
<text text-anchor="middle" x="2404.3059" y="-21.1" font-family="Times,serif" font-size="14.00" fill="#ff0000">function</text>
<polyline fill="none" stroke="#0000ff" stroke-width="2" points="2435.6341,-12.9 2435.6341,-37.7 "/>
<text text-anchor="middle" x="2530.7197" y="-21.1" font-family="Times,serif" font-size="14.00" fill="#ff0000">postProcessBeforeInstantiation</text>
</g>
<!-- AopConfigUtils&#45;&gt;AbstractAutoProxyCreator -->
<g id="edge3" class="edge">
<title>AopConfigUtils&#45;&gt;AbstractAutoProxyCreator</title>
<path fill="none" stroke="#0000ff" stroke-width="2" d="M2499.3915,-111.7181C2499.3915,-99.9934 2499.3915,-85.8134 2499.3915,-73.0152"/>
<polygon fill="#0000ff" stroke="#0000ff" stroke-width="2" points="2502.8916,-72.6739 2499.3915,-62.6739 2495.8916,-72.6739 2502.8916,-72.6739"/>
</g>
</g>
</svg>
