<?xml version="1.0" encoding="UTF-8" standalone="no"?>
<!DOCTYPE svg PUBLIC "-//W3C//DTD SVG 1.1//EN"
 "http://www.w3.org/Graphics/SVG/1.1/DTD/svg11.dtd">
<!-- Generated by graphviz version 2.40.1 (20161225.0304)
 -->
<!-- Title: graph_name Pages: 1 -->
<svg width="2460pt" height="1235pt"
 viewBox="0.00 0.00 2459.71 1235.20" xmlns="http://www.w3.org/2000/svg" xmlns:xlink="http://www.w3.org/1999/xlink">
<g id="graph0" class="graph" transform="scale(1 1) rotate(0) translate(4 1231.2)">
<title>graph_name</title>
<polygon fill="#ffffff" stroke="transparent" points="-4,4 -4,-1231.2 2455.7099,-1231.2 2455.7099,4 -4,4"/>
<!-- AnnotationConfigApplicationContext -->
<g id="node1" class="node">
<title>AnnotationConfigApplicationContext</title>
<polygon fill="none" stroke="#0000ff" stroke-width="2" points="1621.633,-1077.9 1621.633,-1226.7 1933.15,-1226.7 1933.15,-1077.9 1621.633,-1077.9"/>
<text text-anchor="middle" x="1777.3915" y="-1210.1" font-family="Times,serif" font-size="14.00" fill="#ff0000">AnnotationConfigApplicationContext</text>
<polyline fill="none" stroke="#0000ff" stroke-width="2" points="1621.633,-1201.9 1933.15,-1201.9 "/>
<text text-anchor="middle" x="1652.9591" y="-1172.9" font-family="Times,serif" font-size="14.00" fill="#ff0000">attribute</text>
<polyline fill="none" stroke="#0000ff" stroke-width="2" points="1684.2852,-1152.3 1684.2852,-1201.9 "/>
<text text-anchor="middle" x="1808.7176" y="-1185.3" font-family="Times,serif" font-size="14.00" fill="#ff0000">AnnotatedBeanDefinitionReader reader</text>
<polyline fill="none" stroke="#0000ff" stroke-width="2" points="1684.2852,-1177.1 1933.15,-1177.1 "/>
<text text-anchor="middle" x="1808.7176" y="-1160.5" font-family="Times,serif" font-size="14.00" fill="#ff0000">ClassPathBeanDefinitionScanner scanner</text>
<polyline fill="none" stroke="#0000ff" stroke-width="2" points="1621.633,-1152.3 1933.15,-1152.3 "/>
<text text-anchor="middle" x="1653.9612" y="-1110.9" font-family="Times,serif" font-size="14.00" fill="#ff0000">function</text>
<polyline fill="none" stroke="#0000ff" stroke-width="2" points="1686.2894,-1077.9 1686.2894,-1152.3 "/>
<text text-anchor="middle" x="1809.3042" y="-1135.7" font-family="Times,serif" font-size="14.00" fill="#ff0000">register(Class componentClasses)</text>
<polyline fill="none" stroke="#0000ff" stroke-width="2" points="1686.2894,-1127.5 1932.319,-1127.5 "/>
<text text-anchor="middle" x="1809.3042" y="-1110.9" font-family="Times,serif" font-size="14.00" fill="#ff0000">scan(String... basePackages)</text>
<polyline fill="none" stroke="#0000ff" stroke-width="2" points="1686.2894,-1102.7 1932.319,-1102.7 "/>
<text text-anchor="middle" x="1809.3042" y="-1086.1" font-family="Times,serif" font-size="14.00" fill="#ff0000">AbstractApplicationContext类 refresh()</text>
</g>
<!-- AbstractApplicationContext -->
<g id="node2" class="node">
<title>AbstractApplicationContext</title>
<polygon fill="none" stroke="#0000ff" stroke-width="2" points="1129.6029,-892.1 1129.6029,-1040.9 1637.1801,-1040.9 1637.1801,-892.1 1129.6029,-892.1"/>
<text text-anchor="middle" x="1383.3915" y="-1024.3" font-family="Times,serif" font-size="14.00" fill="#ff0000">AbstractApplicationContext</text>
<polyline fill="none" stroke="#0000ff" stroke-width="2" points="1129.6029,-1016.1 1637.1801,-1016.1 "/>
<text text-anchor="middle" x="1160.9311" y="-949.9" font-family="Times,serif" font-size="14.00" fill="#ff0000">function</text>
<polyline fill="none" stroke="#0000ff" stroke-width="2" points="1192.2593,-892.1 1192.2593,-1016.1 "/>
<text text-anchor="middle" x="1414.7197" y="-999.5" font-family="Times,serif" font-size="14.00" fill="#ff0000">ConfigurableListableBeanFactory beanFactory = obtainFreshBeanFactory();</text>
<polyline fill="none" stroke="#0000ff" stroke-width="2" points="1192.2593,-991.3 1637.1801,-991.3 "/>
<text text-anchor="middle" x="1414.7197" y="-974.7" font-family="Times,serif" font-size="14.00" fill="#ff0000">prepareBeanFactory(beanFactory);</text>
<polyline fill="none" stroke="#0000ff" stroke-width="2" points="1192.2593,-966.5 1637.1801,-966.5 "/>
<text text-anchor="middle" x="1414.7197" y="-949.9" font-family="Times,serif" font-size="14.00" fill="#ff0000">postProcessBeanFactory(beanFactory);</text>
<polyline fill="none" stroke="#0000ff" stroke-width="2" points="1192.2593,-941.7 1637.1801,-941.7 "/>
<text text-anchor="middle" x="1414.7197" y="-925.1" font-family="Times,serif" font-size="14.00" fill="#ff0000">invokeBeanFactoryPostProcessors(beanFactory);</text>
<polyline fill="none" stroke="#0000ff" stroke-width="2" points="1192.2593,-916.9 1637.1801,-916.9 "/>
<text text-anchor="middle" x="1414.7197" y="-900.3" font-family="Times,serif" font-size="14.00" fill="#ff0000">registerBeanPostProcessors(beanFactory);</text>
</g>
<!-- AnnotationConfigApplicationContext&#45;&gt;AbstractApplicationContext -->
<g id="edge3" class="edge">
<title>AnnotationConfigApplicationContext:f2&#45;&gt;AbstractApplicationContext</title>
<path fill="none" stroke="#0000ff" stroke-width="2" d="M1809.3915,-1078.3C1809.3915,-1037.2122 1734.3133,-1010.9189 1647.194,-994.2396"/>
<polygon fill="#0000ff" stroke="#0000ff" stroke-width="2" points="1647.821,-990.7963 1637.3489,-992.4041 1646.538,-997.6777 1647.821,-990.7963"/>
</g>
<!-- ClassPathBeanDefinitionScanner -->
<g id="node6" class="node">
<title>ClassPathBeanDefinitionScanner</title>
<polygon fill="none" stroke="#0000ff" stroke-width="2" points="1604.7588,-210.9 1604.7588,-285.3 2230.0242,-285.3 2230.0242,-210.9 1604.7588,-210.9"/>
<text text-anchor="middle" x="1917.3915" y="-268.7" font-family="Times,serif" font-size="14.00" fill="#ff0000">ClassPathBeanDefinitionScanner</text>
<polyline fill="none" stroke="#0000ff" stroke-width="2" points="1604.7588,-260.5 2230.0242,-260.5 "/>
<text text-anchor="middle" x="1728.587" y="-243.9" font-family="Times,serif" font-size="14.00" fill="#ff0000">function</text>
<polyline fill="none" stroke="#0000ff" stroke-width="2" points="1852.4152,-235.7 1852.4152,-260.5 "/>
<text text-anchor="middle" x="2040.7736" y="-243.9" font-family="Times,serif" font-size="14.00" fill="#ff0000">doScan(String... basePackages)</text>
<polyline fill="none" stroke="#0000ff" stroke-width="2" points="1604.7588,-235.7 2230.0242,-235.7 "/>
<text text-anchor="middle" x="1636.087" y="-219.1" font-family="Times,serif" font-size="14.00" fill="#ff0000">function</text>
<polyline fill="none" stroke="#0000ff" stroke-width="2" points="1667.4152,-210.9 1667.4152,-235.7 "/>
<text text-anchor="middle" x="1948.7197" y="-219.1" font-family="Times,serif" font-size="14.00" fill="#ff0000">registerBeanDefinition(BeanDefinitionHolder definitionHolder, BeanDefinitionRegistry registry)</text>
</g>
<!-- AnnotationConfigApplicationContext&#45;&gt;ClassPathBeanDefinitionScanner -->
<g id="edge2" class="edge">
<title>AnnotationConfigApplicationContext:f1&#45;&gt;ClassPathBeanDefinitionScanner</title>
<path fill="none" stroke="#0000ff" stroke-width="2" d="M1932.3915,-1115.3C1949.2359,-1115.3 1942.1619,-1091.1213 1932.3915,-1077.4 1904.02,-1037.5559 1858.071,-1080.2796 1828.3915,-1041.4 1751.2277,-940.3166 1809.3915,-883.0696 1809.3915,-755.9 1809.3915,-755.9 1809.3915,-755.9 1809.3915,-520.5 1809.3915,-436.1005 1854.749,-346.6906 1886.6756,-294.2101"/>
<polygon fill="#0000ff" stroke="#0000ff" stroke-width="2" points="1889.7904,-295.8275 1892.0703,-285.4808 1883.8358,-292.1474 1889.7904,-295.8275"/>
</g>
<!-- AnnotatedBeanDefinitionReader -->
<g id="node12" class="node">
<title>AnnotatedBeanDefinitionReader</title>
<polygon fill="none" stroke="#0000ff" stroke-width="2" points="1837.0835,-929.3 1837.0835,-1003.7 2443.6995,-1003.7 2443.6995,-929.3 1837.0835,-929.3"/>
<text text-anchor="middle" x="2140.3915" y="-987.1" font-family="Times,serif" font-size="14.00" fill="#ff0000">AnnotatedBeanDefinitionReader</text>
<polyline fill="none" stroke="#0000ff" stroke-width="2" points="1837.0835,-978.9 2443.6995,-978.9 "/>
<text text-anchor="middle" x="1868.4117" y="-950.3" font-family="Times,serif" font-size="14.00" fill="#ff0000">function</text>
<polyline fill="none" stroke="#0000ff" stroke-width="2" points="1899.7399,-929.3 1899.7399,-978.9 "/>
<text text-anchor="middle" x="2171.7197" y="-962.3" font-family="Times,serif" font-size="14.00" fill="#ff0000">doRegisterBean(Class beanClass)</text>
<polyline fill="none" stroke="#0000ff" stroke-width="2" points="1899.7399,-954.1 2443.6995,-954.1 "/>
<text text-anchor="middle" x="2171.7197" y="-937.5" font-family="Times,serif" font-size="14.00" fill="#ff0000">AnnotatedBeanDefinitionReader(BeanDefinitionRegistry registry, Environment environment)</text>
</g>
<!-- AnnotationConfigApplicationContext&#45;&gt;AnnotatedBeanDefinitionReader -->
<g id="edge1" class="edge">
<title>AnnotationConfigApplicationContext:f0&#45;&gt;AnnotatedBeanDefinitionReader</title>
<path fill="none" stroke="#0000ff" stroke-width="2" d="M1932.3915,-1140.3C2012.4063,-1140.3 2077.8906,-1063.627 2112.8475,-1012.1328"/>
<polygon fill="#0000ff" stroke="#0000ff" stroke-width="2" points="2115.7762,-1014.0495 2118.3991,-1003.7845 2109.9473,-1010.1733 2115.7762,-1014.0495"/>
</g>
<!-- ConfigurationClassPostProcessor -->
<g id="node3" class="node">
<title>ConfigurationClassPostProcessor</title>
<polygon fill="none" stroke="#0000ff" stroke-width="2" points="798.9962,-718.7 798.9962,-793.1 1287.7868,-793.1 1287.7868,-718.7 798.9962,-718.7"/>
<text text-anchor="middle" x="1043.3915" y="-776.5" font-family="Times,serif" font-size="14.00" fill="#ff0000">ConfigurationClassPostProcessor BeanDefinitionRegistryPostProcessor</text>
<polyline fill="none" stroke="#0000ff" stroke-width="2" points="798.9962,-768.3 1287.7868,-768.3 "/>
<text text-anchor="middle" x="830.3244" y="-751.7" font-family="Times,serif" font-size="14.00" fill="#ff0000">function</text>
<polyline fill="none" stroke="#0000ff" stroke-width="2" points="861.6526,-743.5 861.6526,-768.3 "/>
<text text-anchor="middle" x="1074.7197" y="-751.7" font-family="Times,serif" font-size="14.00" fill="#ff0000">postProcessBeanFactory(ConfigurableListableBeanFactory beanFactory)</text>
<polyline fill="none" stroke="#0000ff" stroke-width="2" points="798.9962,-743.5 1287.7868,-743.5 "/>
<text text-anchor="middle" x="889.5488" y="-726.9" font-family="Times,serif" font-size="14.00" fill="#ff0000">type</text>
<polyline fill="none" stroke="#0000ff" stroke-width="2" points="980.1014,-718.7 980.1014,-743.5 "/>
<text text-anchor="middle" x="1133.6358" y="-726.9" font-family="Times,serif" font-size="14.00" fill="#ff0000">BeanFactoryPostProcessor</text>
</g>
<!-- AbstractApplicationContext&#45;&gt;ConfigurationClassPostProcessor -->
<g id="edge6" class="edge">
<title>AbstractApplicationContext:f6&#45;&gt;ConfigurationClassPostProcessor</title>
<path fill="none" stroke="#0000ff" stroke-width="2" d="M1637.3915,-929.5C1654.2359,-929.5 1648.6597,-904.1205 1637.3915,-891.6 1586.4176,-834.9614 1370.4012,-873.7337 1296.3915,-855.6 1239.8612,-841.7491 1179.1047,-818.1173 1131.3022,-797.3371"/>
<polygon fill="#0000ff" stroke="#0000ff" stroke-width="2" points="1132.4833,-794.0334 1121.9195,-793.2229 1129.6721,-800.4441 1132.4833,-794.0334"/>
</g>
<!-- AbstractRefreshableApplicationContext -->
<g id="node8" class="node">
<title>AbstractRefreshableApplicationContext</title>
<polygon fill="none" stroke="#0000ff" stroke-width="2" points="1321.5261,-483.3 1321.5261,-557.7 1781.2569,-557.7 1781.2569,-483.3 1321.5261,-483.3"/>
<text text-anchor="middle" x="1551.3915" y="-541.1" font-family="Times,serif" font-size="14.00" fill="#ff0000">AbstractRefreshableApplicationContext</text>
<polyline fill="none" stroke="#0000ff" stroke-width="2" points="1321.5261,-532.9 1781.2569,-532.9 "/>
<text text-anchor="middle" x="1417.8543" y="-516.3" font-family="Times,serif" font-size="14.00" fill="#ff0000">function</text>
<polyline fill="none" stroke="#0000ff" stroke-width="2" points="1514.1825,-508.1 1514.1825,-532.9 "/>
<text text-anchor="middle" x="1647.5353" y="-516.3" font-family="Times,serif" font-size="14.00" fill="#ff0000">refreshBeanFactory()</text>
<polyline fill="none" stroke="#0000ff" stroke-width="2" points="1321.5261,-508.1 1781.2569,-508.1 "/>
<text text-anchor="middle" x="1361.2207" y="-491.5" font-family="Times,serif" font-size="14.00" fill="#ff0000">关键代码</text>
<polyline fill="none" stroke="#0000ff" stroke-width="2" points="1400.9153,-483.3 1400.9153,-508.1 "/>
<text text-anchor="middle" x="1591.0861" y="-491.5" font-family="Times,serif" font-size="14.00" fill="#ff0000">DefaultListableBeanFactory beanFactory = createBeanFactory();</text>
</g>
<!-- AbstractApplicationContext&#45;&gt;AbstractRefreshableApplicationContext -->
<g id="edge4" class="edge">
<title>AbstractApplicationContext:f4&#45;&gt;AbstractRefreshableApplicationContext</title>
<path fill="none" stroke="#a020f0" stroke-width="2" d="M1637.3915,-1003.5C1813.7577,-1003.5 1648.547,-687.4952 1578.9467,-566.6928"/>
<polygon fill="#a020f0" stroke="#a020f0" stroke-width="2" points="1581.9504,-564.8954 1573.9079,-557.9983 1575.8939,-568.4053 1581.9504,-564.8954"/>
</g>
<!-- ApplicationContextAwareProcessor -->
<g id="node10" class="node">
<title>ApplicationContextAwareProcessor</title>
<polygon fill="none" stroke="#0000ff" stroke-width="2" points="1305.3136,-731.1 1305.3136,-780.7 1523.4694,-780.7 1523.4694,-731.1 1305.3136,-731.1"/>
<text text-anchor="middle" x="1414.3915" y="-764.1" font-family="Times,serif" font-size="14.00" fill="#ff0000">ApplicationContextAwareProcessor</text>
<polyline fill="none" stroke="#0000ff" stroke-width="2" points="1305.3136,-755.9 1523.4694,-755.9 "/>
<text text-anchor="middle" x="1338.8662" y="-739.3" font-family="Times,serif" font-size="14.00" fill="#ff0000">type</text>
<polyline fill="none" stroke="#0000ff" stroke-width="2" points="1372.4188,-731.1 1372.4188,-755.9 "/>
<text text-anchor="middle" x="1447.5717" y="-739.3" font-family="Times,serif" font-size="14.00" fill="#ff0000">BeanPostProcessor</text>
</g>
<!-- AbstractApplicationContext&#45;&gt;ApplicationContextAwareProcessor -->
<g id="edge5" class="edge">
<title>AbstractApplicationContext:f5&#45;&gt;ApplicationContextAwareProcessor</title>
<path fill="none" stroke="#ff0000" stroke-width="2" d="M1637.3915,-978.5C1676.0137,-978.5 1659.5998,-923.1985 1637.3915,-891.6 1610.2298,-852.9535 1578.5395,-878.798 1537.3915,-855.6 1504.2613,-836.9222 1471.0138,-809.311 1447.4533,-787.8788"/>
<polygon fill="#ff0000" stroke="#ff0000" stroke-width="2" points="1449.5738,-785.0733 1439.8488,-780.8692 1444.8294,-790.2203 1449.5738,-785.0733"/>
</g>
<!-- PostProcessorRegistrationDelegate -->
<g id="node11" class="node">
<title>PostProcessorRegistrationDelegate</title>
<polygon fill="none" stroke="#0000ff" stroke-width="2" points="0,-731.1 0,-780.7 780.783,-780.7 780.783,-731.1 0,-731.1"/>
<text text-anchor="middle" x="390.3915" y="-764.1" font-family="Times,serif" font-size="14.00" fill="#ff0000">PostProcessorRegistrationDelegate</text>
<polyline fill="none" stroke="#0000ff" stroke-width="2" points="0,-755.9 780.783,-755.9 "/>
<text text-anchor="middle" x="31.3282" y="-739.3" font-family="Times,serif" font-size="14.00" fill="#ff0000">function</text>
<polyline fill="none" stroke="#0000ff" stroke-width="2" points="62.6564,-731.1 62.6564,-755.9 "/>
<text text-anchor="middle" x="421.7197" y="-739.3" font-family="Times,serif" font-size="14.00" fill="#ff0000">registerBeanPostProcessors(ConfigurableListableBeanFactory beanFactory, AbstractApplicationContext applicationContext)</text>
</g>
<!-- AbstractApplicationContext&#45;&gt;PostProcessorRegistrationDelegate -->
<g id="edge7" class="edge">
<title>AbstractApplicationContext:f7&#45;&gt;PostProcessorRegistrationDelegate</title>
<path fill="none" stroke="#00ff00" stroke-width="2" d="M1414.3915,-892.5C1414.3915,-857.7728 824.7201,-860.8469 790.3915,-855.6 682.467,-839.1045 561.1298,-806.8657 480.6879,-783.5037"/>
<polygon fill="#00ff00" stroke="#00ff00" stroke-width="2" points="481.6644,-780.1427 471.0842,-780.7003 479.7029,-786.8623 481.6644,-780.1427"/>
</g>
<!-- ConfigurationClassParser -->
<g id="node4" class="node">
<title>ConfigurationClassParser</title>
<polygon fill="none" stroke="#0000ff" stroke-width="2" points="700.0639,-421.3 700.0639,-619.7 1278.7191,-619.7 1278.7191,-421.3 700.0639,-421.3"/>
<text text-anchor="middle" x="989.3915" y="-603.1" font-family="Times,serif" font-size="14.00" fill="#ff0000">ConfigurationClassParser</text>
<polyline fill="none" stroke="#0000ff" stroke-width="2" points="700.0639,-594.9 1278.7191,-594.9 "/>
<text text-anchor="middle" x="731.3921" y="-578.3" font-family="Times,serif" font-size="14.00" fill="#ff0000">function</text>
<polyline fill="none" stroke="#0000ff" stroke-width="2" points="762.7203,-570.1 762.7203,-594.9 "/>
<text text-anchor="middle" x="1020.7197" y="-578.3" font-family="Times,serif" font-size="14.00" fill="#ff0000">doProcessConfigurationClass(ConfigurationClass configClass, SourceClass sourceClass)</text>
<polyline fill="none" stroke="#0000ff" stroke-width="2" points="700.0639,-570.1 1278.7191,-570.1 "/>
<text text-anchor="middle" x="753.0085" y="-491.5" font-family="Times,serif" font-size="14.00" fill="#ff0000">处理注解</text>
<polyline fill="none" stroke="#0000ff" stroke-width="2" points="805.9531,-421.3 805.9531,-570.1 "/>
<text text-anchor="middle" x="1042.2631" y="-553.5" font-family="Times,serif" font-size="14.00" fill="#ff0000">@PropertySource</text>
<polyline fill="none" stroke="#0000ff" stroke-width="2" points="805.9531,-545.3 1278.5731,-545.3 "/>
<text text-anchor="middle" x="1042.2631" y="-528.7" font-family="Times,serif" font-size="14.00" fill="#ff0000">@ComponentScan</text>
<polyline fill="none" stroke="#0000ff" stroke-width="2" points="805.9531,-520.5 1278.5731,-520.5 "/>
<text text-anchor="middle" x="846.9506" y="-491.5" font-family="Times,serif" font-size="14.00" fill="#ff0000">@Import</text>
<polyline fill="none" stroke="#0000ff" stroke-width="2" points="887.9481,-470.9 887.9481,-520.5 "/>
<text text-anchor="middle" x="1083.2606" y="-503.9" font-family="Times,serif" font-size="14.00" fill="#ff0000">ImportSelector configurationClasses</text>
<polyline fill="none" stroke="#0000ff" stroke-width="2" points="887.9481,-495.7 1278.5731,-495.7 "/>
<text text-anchor="middle" x="1083.2606" y="-479.1" font-family="Times,serif" font-size="14.00" fill="#ff0000">ImportBeanDefinitionRegistrar importBeanDefinitionRegistrars</text>
<polyline fill="none" stroke="#0000ff" stroke-width="2" points="805.9531,-470.9 1278.5731,-470.9 "/>
<text text-anchor="middle" x="1042.2631" y="-454.3" font-family="Times,serif" font-size="14.00" fill="#ff0000">@ImportResource</text>
<polyline fill="none" stroke="#0000ff" stroke-width="2" points="805.9531,-446.1 1278.5731,-446.1 "/>
<text text-anchor="middle" x="1042.2631" y="-429.5" font-family="Times,serif" font-size="14.00" fill="#ff0000">@Bean</text>
</g>
<!-- ConfigurationClassPostProcessor&#45;&gt;ConfigurationClassParser -->
<g id="edge9" class="edge">
<title>ConfigurationClassPostProcessor&#45;&gt;ConfigurationClassParser</title>
<path fill="none" stroke="#0000ff" stroke-width="2" d="M1034.835,-718.6002C1029.2966,-694.4565 1021.7747,-661.6669 1014.4452,-629.7156"/>
<polygon fill="#0000ff" stroke="#0000ff" stroke-width="2" points="1017.8265,-628.8013 1012.1791,-619.837 1011.0037,-630.3665 1017.8265,-628.8013"/>
</g>
<!-- ComponentScanAnnotationParser -->
<g id="node7" class="node">
<title>ComponentScanAnnotationParser</title>
<polygon fill="none" stroke="#0000ff" stroke-width="2" points="1062.5348,-334.7 1062.5348,-384.3 1548.2482,-384.3 1548.2482,-334.7 1062.5348,-334.7"/>
<text text-anchor="middle" x="1305.3915" y="-367.7" font-family="Times,serif" font-size="14.00" fill="#ff0000">ComponentScanAnnotationParser</text>
<polyline fill="none" stroke="#0000ff" stroke-width="2" points="1062.5348,-359.5 1548.2482,-359.5 "/>
<text text-anchor="middle" x="1093.863" y="-342.9" font-family="Times,serif" font-size="14.00" fill="#ff0000">function</text>
<polyline fill="none" stroke="#0000ff" stroke-width="2" points="1125.1912,-334.7 1125.1912,-359.5 "/>
<text text-anchor="middle" x="1336.7197" y="-342.9" font-family="Times,serif" font-size="14.00" fill="#ff0000">parse(AnnotationAttributes componentScan, final String declaringClass)</text>
</g>
<!-- ConfigurationClassParser&#45;&gt;ComponentScanAnnotationParser -->
<g id="edge10" class="edge">
<title>ConfigurationClassParser:f3&#45;&gt;ComponentScanAnnotationParser</title>
<path fill="none" stroke="#a020f0" stroke-width="2" d="M1278.3915,-532.5C1305.9907,-532.5 1308.0214,-445.4595 1306.8698,-394.8564"/>
<polygon fill="#a020f0" stroke="#a020f0" stroke-width="2" points="1310.3628,-394.5536 1306.5838,-384.6557 1303.3655,-394.7499 1310.3628,-394.5536"/>
</g>
<!-- ConfigurationClassBeanDefinitionReader -->
<g id="node14" class="node">
<title>ConfigurationClassBeanDefinitionReader</title>
<polygon fill="none" stroke="#0000ff" stroke-width="2" points="761.5111,-198.5 761.5111,-297.7 1447.2719,-297.7 1447.2719,-198.5 761.5111,-198.5"/>
<text text-anchor="middle" x="1104.3915" y="-281.1" font-family="Times,serif" font-size="14.00" fill="#ff0000">ConfigurationClassBeanDefinitionReader</text>
<polyline fill="none" stroke="#0000ff" stroke-width="2" points="761.5111,-272.9 1447.2719,-272.9 "/>
<text text-anchor="middle" x="792.8393" y="-231.8" font-family="Times,serif" font-size="14.00" fill="#ff0000">function</text>
<polyline fill="none" stroke="#0000ff" stroke-width="2" points="824.1675,-198.5 824.1675,-272.9 "/>
<text text-anchor="middle" x="1135.7197" y="-256.3" font-family="Times,serif" font-size="14.00" fill="#ff0000">loadBeanDefinitions(Set&lt;ConfigurationClass&gt; configurationModel)</text>
<polyline fill="none" stroke="#0000ff" stroke-width="2" points="824.1675,-248.1 1447.2719,-248.1 "/>
<text text-anchor="middle" x="1135.7197" y="-231.5" font-family="Times,serif" font-size="14.00" fill="#ff0000">registerBeanDefinitionForImportedConfigurationClass(ConfigurationClass configClass)</text>
<polyline fill="none" stroke="#0000ff" stroke-width="2" points="824.1675,-223.3 1447.2719,-223.3 "/>
<text text-anchor="middle" x="1135.7197" y="-206.7" font-family="Times,serif" font-size="14.00" fill="#ff0000">loadBeanDefinitionsFromRegistrars(Map&lt;ImportBeanDefinitionRegistrar, AnnotationMetadata&gt; registrars)</text>
</g>
<!-- ConfigurationClassParser&#45;&gt;ConfigurationClassBeanDefinitionReader -->
<g id="edge11" class="edge">
<title>ConfigurationClassParser:f11&#45;&gt;ConfigurationClassBeanDefinitionReader:f13</title>
<path fill="none" stroke="#ff0000" stroke-width="2" d="M1278.3915,-508.5C1317.3693,-508.5 1303.6822,-450.4589 1278.3915,-420.8 1212.6813,-343.7404 1119.1017,-461.8596 1053.3915,-384.8 1038.7996,-367.6878 1038.2302,-350.8098 1053.3915,-334.2 1112.6647,-269.2641 1388.1183,-363.1359 1447.3915,-298.2 1463.2366,-280.8411 1472.1099,-248.0142 1457.3515,-238.6512"/>
<polygon fill="#ff0000" stroke="#ff0000" stroke-width="2" points="1457.9473,-235.1909 1447.3915,-236.1 1456.2103,-241.972 1457.9473,-235.1909"/>
</g>
<!-- ConfigurationClassParser&#45;&gt;ConfigurationClassBeanDefinitionReader -->
<g id="edge12" class="edge">
<title>ConfigurationClassParser:f12&#45;&gt;ConfigurationClassBeanDefinitionReader:f14</title>
<path fill="none" stroke="#00ff00" stroke-width="2" d="M1278.3915,-483.5C1306.2582,-483.5 1296.5761,-441.9157 1278.3915,-420.8 1208.0068,-339.0701 1108.7762,-466.5299 1038.3915,-384.8 1023.7162,-367.7593 1023.2028,-350.7847 1038.3915,-334.2 1099.9961,-266.9331 1385.6673,-365.4669 1447.2719,-298.2 1477.3191,-265.3911 1478.7303,-229.5584 1447.2719,-198.1 1436.2883,-187.1164 1194.3446,-181.9009 1144.3724,-193.4225"/>
<polygon fill="#00ff00" stroke="#00ff00" stroke-width="2" points="1142.6439,-190.3764 1135.3915,-198.1 1145.8774,-196.5848 1142.6439,-190.3764"/>
</g>
<!-- AnnotationConfigUtils -->
<g id="node5" class="node">
<title>AnnotationConfigUtils</title>
<polygon fill="none" stroke="#0000ff" stroke-width="2" points="1837.5362,-656.7 1837.5362,-855.1 2309.2468,-855.1 2309.2468,-656.7 1837.5362,-656.7"/>
<text text-anchor="middle" x="2073.3915" y="-838.5" font-family="Times,serif" font-size="14.00" fill="#ff0000">AnnotationConfigUtils</text>
<polyline fill="none" stroke="#0000ff" stroke-width="2" points="1837.5362,-830.3 2309.2468,-830.3 "/>
<text text-anchor="middle" x="1868.8644" y="-813.7" font-family="Times,serif" font-size="14.00" fill="#ff0000">function</text>
<polyline fill="none" stroke="#0000ff" stroke-width="2" points="1900.1926,-805.5 1900.1926,-830.3 "/>
<text text-anchor="middle" x="2104.7197" y="-813.7" font-family="Times,serif" font-size="14.00" fill="#ff0000">registerAnnotationConfigProcessors(BeanDefinitionRegistry registry)</text>
<polyline fill="none" stroke="#0000ff" stroke-width="2" points="1837.5362,-805.5 2309.2468,-805.5 "/>
<text text-anchor="middle" x="1916.485" y="-726.9" font-family="Times,serif" font-size="14.00" fill="#ff0000">默认后置处理器</text>
<polyline fill="none" stroke="#0000ff" stroke-width="2" points="1995.4338,-656.7 1995.4338,-805.5 "/>
<text text-anchor="middle" x="2151.9237" y="-788.9" font-family="Times,serif" font-size="14.00" fill="#ff0000">ConfigurationClassPostProcessor.class</text>
<polyline fill="none" stroke="#0000ff" stroke-width="2" points="1995.4338,-780.7 2308.4136,-780.7 "/>
<text text-anchor="middle" x="2151.9237" y="-764.1" font-family="Times,serif" font-size="14.00" fill="#ff0000">AutowiredAnnotationBeanPostProcessor.class</text>
<polyline fill="none" stroke="#0000ff" stroke-width="2" points="1995.4338,-755.9 2308.4136,-755.9 "/>
<text text-anchor="middle" x="2151.9237" y="-739.3" font-family="Times,serif" font-size="14.00" fill="#ff0000">CommonAnnotationBeanPostProcessor.class</text>
<polyline fill="none" stroke="#0000ff" stroke-width="2" points="1995.4338,-731.1 2308.4136,-731.1 "/>
<text text-anchor="middle" x="2151.9237" y="-714.5" font-family="Times,serif" font-size="14.00" fill="#ff0000">PersistenceAnnotationBeanPostProcessor.class</text>
<polyline fill="none" stroke="#0000ff" stroke-width="2" points="1995.4338,-706.3 2308.4136,-706.3 "/>
<text text-anchor="middle" x="2151.9237" y="-689.7" font-family="Times,serif" font-size="14.00" fill="#ff0000">EventListenerMethodProcessor.class</text>
<polyline fill="none" stroke="#0000ff" stroke-width="2" points="1995.4338,-681.5 2308.4136,-681.5 "/>
<text text-anchor="middle" x="2151.9237" y="-664.9" font-family="Times,serif" font-size="14.00" fill="#ff0000">DefaultEventListenerFactory.class</text>
</g>
<!-- BeanDefinitionReaderUtils -->
<g id="node13" class="node">
<title>BeanDefinitionReaderUtils</title>
<polygon fill="none" stroke="#0000ff" stroke-width="2" points="1604.7588,-111.9 1604.7588,-161.5 2230.0242,-161.5 2230.0242,-111.9 1604.7588,-111.9"/>
<text text-anchor="middle" x="1917.3915" y="-144.9" font-family="Times,serif" font-size="14.00" fill="#ff0000">BeanDefinitionReaderUtils</text>
<polyline fill="none" stroke="#0000ff" stroke-width="2" points="1604.7588,-136.7 2230.0242,-136.7 "/>
<text text-anchor="middle" x="1636.087" y="-120.1" font-family="Times,serif" font-size="14.00" fill="#ff0000">function</text>
<polyline fill="none" stroke="#0000ff" stroke-width="2" points="1667.4152,-111.9 1667.4152,-136.7 "/>
<text text-anchor="middle" x="1948.7197" y="-120.1" font-family="Times,serif" font-size="14.00" fill="#ff0000">registerBeanDefinition(BeanDefinitionHolder definitionHolder, BeanDefinitionRegistry registry)</text>
</g>
<!-- ClassPathBeanDefinitionScanner&#45;&gt;BeanDefinitionReaderUtils -->
<g id="edge14" class="edge">
<title>ClassPathBeanDefinitionScanner&#45;&gt;BeanDefinitionReaderUtils</title>
<path fill="none" stroke="#0000ff" stroke-width="2" d="M1917.3915,-210.6955C1917.3915,-198.1802 1917.3915,-184.2785 1917.3915,-171.9345"/>
<polygon fill="#0000ff" stroke="#0000ff" stroke-width="2" points="1920.8916,-171.5616 1917.3915,-161.5617 1913.8916,-171.5617 1920.8916,-171.5616"/>
</g>
<!-- ComponentScanAnnotationParser&#45;&gt;ClassPathBeanDefinitionScanner -->
<g id="edge13" class="edge">
<title>ComponentScanAnnotationParser&#45;&gt;ClassPathBeanDefinitionScanner</title>
<path fill="none" stroke="#0000ff" stroke-width="2" d="M1441.9745,-334.6383C1518.7214,-320.6684 1616.23,-302.9193 1702.9376,-287.1362"/>
<polygon fill="#0000ff" stroke="#0000ff" stroke-width="2" points="1703.7012,-290.5548 1712.9127,-285.3205 1702.4475,-283.668 1703.7012,-290.5548"/>
</g>
<!-- DefaultListableBeanFactory -->
<g id="node9" class="node">
<title>DefaultListableBeanFactory</title>
<polygon fill="none" stroke="#0000ff" stroke-width="2" points="1277.0779,-.5 1277.0779,-74.9 1771.7051,-74.9 1771.7051,-.5 1277.0779,-.5"/>
<text text-anchor="middle" x="1524.3915" y="-58.3" font-family="Times,serif" font-size="14.00" fill="#ff0000">DefaultListableBeanFactory</text>
<polyline fill="none" stroke="#0000ff" stroke-width="2" points="1277.0779,-50.1 1771.7051,-50.1 "/>
<text text-anchor="middle" x="1384.904" y="-33.5" font-family="Times,serif" font-size="14.00" fill="#ff0000">attribute</text>
<polyline fill="none" stroke="#0000ff" stroke-width="2" points="1492.7301,-25.3 1492.7301,-50.1 "/>
<text text-anchor="middle" x="1632.0464" y="-33.5" font-family="Times,serif" font-size="14.00" fill="#ff0000">beanDefinitionMap</text>
<polyline fill="none" stroke="#0000ff" stroke-width="2" points="1277.0779,-25.3 1771.7051,-25.3 "/>
<text text-anchor="middle" x="1308.4061" y="-8.7" font-family="Times,serif" font-size="14.00" fill="#ff0000">function</text>
<polyline fill="none" stroke="#0000ff" stroke-width="2" points="1339.7343,-.5 1339.7343,-25.3 "/>
<text text-anchor="middle" x="1555.7197" y="-8.7" font-family="Times,serif" font-size="14.00" fill="#ff0000">registerBeanDefinition(String beanName, BeanDefinition beanDefinition)</text>
</g>
<!-- AbstractRefreshableApplicationContext&#45;&gt;DefaultListableBeanFactory -->
<g id="edge8" class="edge">
<title>AbstractRefreshableApplicationContext&#45;&gt;DefaultListableBeanFactory</title>
<path fill="none" stroke="#0000ff" stroke-width="2" d="M1553.4913,-483.0758C1554.9114,-455.8323 1556.6569,-418.0426 1557.3915,-384.8 1560.0845,-262.9259 1550.3832,-232.3785 1535.3915,-111.4 1534.3395,-102.9104 1533.097,-93.8894 1531.8327,-85.1778"/>
<polygon fill="#0000ff" stroke="#0000ff" stroke-width="2" points="1535.2741,-84.524 1530.3485,-75.1438 1528.3495,-85.5483 1535.2741,-84.524"/>
</g>
<!-- AnnotatedBeanDefinitionReader&#45;&gt;AnnotationConfigUtils -->
<g id="edge17" class="edge">
<title>AnnotatedBeanDefinitionReader:f9&#45;&gt;AnnotationConfigUtils</title>
<path fill="none" stroke="#0000ff" stroke-width="2" d="M2171.3915,-929.5C2171.3915,-907.1903 2165.178,-885.109 2155.88,-864.5555"/>
<polygon fill="#0000ff" stroke="#0000ff" stroke-width="2" points="2159.0361,-863.0424 2151.5597,-855.5354 2152.7229,-866.0662 2159.0361,-863.0424"/>
</g>
<!-- AnnotatedBeanDefinitionReader&#45;&gt;BeanDefinitionReaderUtils -->
<g id="edge15" class="edge">
<title>AnnotatedBeanDefinitionReader:f10&#45;&gt;BeanDefinitionReaderUtils</title>
<path fill="none" stroke="#0000ff" stroke-width="2" d="M2443.3915,-966.5C2460.1471,-966.5 2445.5138,-945.4206 2443.3915,-928.8 2419.6447,-742.8277 2337.3915,-707.9823 2337.3915,-520.5 2337.3915,-520.5 2337.3915,-520.5 2337.3915,-359.5 2337.3915,-275.5409 2308.3643,-245.8737 2239.3915,-198 2219.2729,-184.0358 2176.2841,-172.5322 2128.0778,-163.4131"/>
<polygon fill="#0000ff" stroke="#0000ff" stroke-width="2" points="2128.515,-159.9348 2118.046,-161.5623 2127.245,-166.8186 2128.515,-159.9348"/>
</g>
<!-- BeanDefinitionReaderUtils&#45;&gt;DefaultListableBeanFactory -->
<g id="edge16" class="edge">
<title>BeanDefinitionReaderUtils&#45;&gt;DefaultListableBeanFactory</title>
<path fill="none" stroke="#0000ff" stroke-width="2" d="M1818.7283,-111.8459C1777.3351,-101.4186 1728.1656,-89.0324 1681.9829,-77.3986"/>
<polygon fill="#0000ff" stroke="#0000ff" stroke-width="2" points="1682.7293,-73.9774 1672.1773,-74.9285 1681.0193,-80.7653 1682.7293,-73.9774"/>
</g>
<!-- ConfigurationClassBeanDefinitionReader&#45;&gt;DefaultListableBeanFactory -->
<g id="edge18" class="edge">
<title>ConfigurationClassBeanDefinitionReader:f13&#45;&gt;DefaultListableBeanFactory</title>
<path fill="none" stroke="#0000ff" stroke-width="2" d="M1447.3915,-236.1C1511.873,-236.1 1524.2229,-143.8939 1525.5523,-85.2001"/>
<polygon fill="#0000ff" stroke="#0000ff" stroke-width="2" points="1529.0542,-85.0611 1525.6814,-75.0175 1522.0548,-84.9723 1529.0542,-85.0611"/>
</g>
<!-- ConfigurationClassBeanDefinitionReader&#45;&gt;DefaultListableBeanFactory -->
<g id="edge19" class="edge">
<title>ConfigurationClassBeanDefinitionReader:f14&#45;&gt;DefaultListableBeanFactory</title>
<path fill="none" stroke="#0000ff" stroke-width="2" d="M1447.3915,-211.1C1475.0292,-211.1 1499.5201,-136.5894 1513.1137,-85.2543"/>
<polygon fill="#0000ff" stroke="#0000ff" stroke-width="2" points="1516.5662,-85.8833 1515.6848,-75.3252 1509.7897,-84.1285 1516.5662,-85.8833"/>
</g>
</g>
</svg>
