<?xml version="1.0" encoding="UTF-8" standalone="no"?>
<!DOCTYPE svg PUBLIC "-//W3C//DTD SVG 1.1//EN"
 "http://www.w3.org/Graphics/SVG/1.1/DTD/svg11.dtd">
<!-- Generated by graphviz version 2.40.1 (20161225.0304)
 -->
<!-- Title: graph_name Pages: 1 -->
<svg width="2313pt" height="1111pt"
 viewBox="0.00 0.00 2312.75 1111.20" xmlns="http://www.w3.org/2000/svg" xmlns:xlink="http://www.w3.org/1999/xlink">
<g id="graph0" class="graph" transform="scale(1 1) rotate(0) translate(4 1107.2)">
<title>graph_name</title>
<polygon fill="#ffffff" stroke="transparent" points="-4,4 -4,-1107.2 2308.7539,-1107.2 2308.7539,4 -4,4"/>
<!-- AnnotationConfigApplicationContext -->
<g id="node1" class="node">
<title>AnnotationConfigApplicationContext</title>
<polygon fill="none" stroke="#0000ff" stroke-width="2" points="1474.633,-953.9 1474.633,-1102.7 1786.15,-1102.7 1786.15,-953.9 1474.633,-953.9"/>
<text text-anchor="middle" x="1630.3915" y="-1086.1" font-family="Times,serif" font-size="14.00" fill="#ff0000">AnnotationConfigApplicationContext</text>
<polyline fill="none" stroke="#0000ff" stroke-width="2" points="1474.633,-1077.9 1786.15,-1077.9 "/>
<text text-anchor="middle" x="1505.9591" y="-1048.9" font-family="Times,serif" font-size="14.00" fill="#ff0000">attribute</text>
<polyline fill="none" stroke="#0000ff" stroke-width="2" points="1537.2852,-1028.3 1537.2852,-1077.9 "/>
<text text-anchor="middle" x="1661.7176" y="-1061.3" font-family="Times,serif" font-size="14.00" fill="#ff0000">AnnotatedBeanDefinitionReader reader</text>
<polyline fill="none" stroke="#0000ff" stroke-width="2" points="1537.2852,-1053.1 1786.15,-1053.1 "/>
<text text-anchor="middle" x="1661.7176" y="-1036.5" font-family="Times,serif" font-size="14.00" fill="#ff0000">ClassPathBeanDefinitionScanner scanner</text>
<polyline fill="none" stroke="#0000ff" stroke-width="2" points="1474.633,-1028.3 1786.15,-1028.3 "/>
<text text-anchor="middle" x="1506.9612" y="-986.9" font-family="Times,serif" font-size="14.00" fill="#ff0000">function</text>
<polyline fill="none" stroke="#0000ff" stroke-width="2" points="1539.2894,-953.9 1539.2894,-1028.3 "/>
<text text-anchor="middle" x="1662.3042" y="-1011.7" font-family="Times,serif" font-size="14.00" fill="#ff0000">register(Class componentClasses)</text>
<polyline fill="none" stroke="#0000ff" stroke-width="2" points="1539.2894,-1003.5 1785.319,-1003.5 "/>
<text text-anchor="middle" x="1662.3042" y="-986.9" font-family="Times,serif" font-size="14.00" fill="#ff0000">scan(String... basePackages)</text>
<polyline fill="none" stroke="#0000ff" stroke-width="2" points="1539.2894,-978.7 1785.319,-978.7 "/>
<text text-anchor="middle" x="1662.3042" y="-962.1" font-family="Times,serif" font-size="14.00" fill="#ff0000">AbstractApplicationContext类 refresh()</text>
</g>
<!-- AbstractApplicationContext -->
<g id="node2" class="node">
<title>AbstractApplicationContext</title>
<polygon fill="none" stroke="#0000ff" stroke-width="2" points="660.6029,-768.1 660.6029,-916.9 1168.1801,-916.9 1168.1801,-768.1 660.6029,-768.1"/>
<text text-anchor="middle" x="914.3915" y="-900.3" font-family="Times,serif" font-size="14.00" fill="#ff0000">AbstractApplicationContext</text>
<polyline fill="none" stroke="#0000ff" stroke-width="2" points="660.6029,-892.1 1168.1801,-892.1 "/>
<text text-anchor="middle" x="691.9311" y="-825.9" font-family="Times,serif" font-size="14.00" fill="#ff0000">function</text>
<polyline fill="none" stroke="#0000ff" stroke-width="2" points="723.2593,-768.1 723.2593,-892.1 "/>
<text text-anchor="middle" x="945.7197" y="-875.5" font-family="Times,serif" font-size="14.00" fill="#ff0000">ConfigurableListableBeanFactory beanFactory = obtainFreshBeanFactory();</text>
<polyline fill="none" stroke="#0000ff" stroke-width="2" points="723.2593,-867.3 1168.1801,-867.3 "/>
<text text-anchor="middle" x="945.7197" y="-850.7" font-family="Times,serif" font-size="14.00" fill="#ff0000">prepareBeanFactory(beanFactory);</text>
<polyline fill="none" stroke="#0000ff" stroke-width="2" points="723.2593,-842.5 1168.1801,-842.5 "/>
<text text-anchor="middle" x="945.7197" y="-825.9" font-family="Times,serif" font-size="14.00" fill="#ff0000">postProcessBeanFactory(beanFactory);</text>
<polyline fill="none" stroke="#0000ff" stroke-width="2" points="723.2593,-817.7 1168.1801,-817.7 "/>
<text text-anchor="middle" x="945.7197" y="-801.1" font-family="Times,serif" font-size="14.00" fill="#ff0000">invokeBeanFactoryPostProcessors(beanFactory);</text>
<polyline fill="none" stroke="#0000ff" stroke-width="2" points="723.2593,-792.9 1168.1801,-792.9 "/>
<text text-anchor="middle" x="945.7197" y="-776.3" font-family="Times,serif" font-size="14.00" fill="#ff0000">registerBeanPostProcessors(beanFactory);</text>
</g>
<!-- AnnotationConfigApplicationContext&#45;&gt;AbstractApplicationContext -->
<g id="edge3" class="edge">
<title>AnnotationConfigApplicationContext:f2&#45;&gt;AbstractApplicationContext</title>
<path fill="none" stroke="#0000ff" stroke-width="2" d="M1662.3915,-954.3C1662.3915,-903.9523 1393.8896,-873.8028 1178.6222,-857.7215"/>
<polygon fill="#0000ff" stroke="#0000ff" stroke-width="2" points="1178.6439,-854.2136 1168.4129,-856.9663 1178.1274,-861.1945 1178.6439,-854.2136"/>
</g>
<!-- ClassPathBeanDefinitionScanner -->
<g id="node6" class="node">
<title>ClassPathBeanDefinitionScanner</title>
<polygon fill="none" stroke="#0000ff" stroke-width="2" points="1139.7588,-198.5 1139.7588,-272.9 1765.0242,-272.9 1765.0242,-198.5 1139.7588,-198.5"/>
<text text-anchor="middle" x="1452.3915" y="-256.3" font-family="Times,serif" font-size="14.00" fill="#ff0000">ClassPathBeanDefinitionScanner</text>
<polyline fill="none" stroke="#0000ff" stroke-width="2" points="1139.7588,-248.1 1765.0242,-248.1 "/>
<text text-anchor="middle" x="1263.587" y="-231.5" font-family="Times,serif" font-size="14.00" fill="#ff0000">function</text>
<polyline fill="none" stroke="#0000ff" stroke-width="2" points="1387.4152,-223.3 1387.4152,-248.1 "/>
<text text-anchor="middle" x="1575.7736" y="-231.5" font-family="Times,serif" font-size="14.00" fill="#ff0000">doScan(String... basePackages)</text>
<polyline fill="none" stroke="#0000ff" stroke-width="2" points="1139.7588,-223.3 1765.0242,-223.3 "/>
<text text-anchor="middle" x="1171.087" y="-206.7" font-family="Times,serif" font-size="14.00" fill="#ff0000">function</text>
<polyline fill="none" stroke="#0000ff" stroke-width="2" points="1202.4152,-198.5 1202.4152,-223.3 "/>
<text text-anchor="middle" x="1483.7197" y="-206.7" font-family="Times,serif" font-size="14.00" fill="#ff0000">registerBeanDefinition(BeanDefinitionHolder definitionHolder, BeanDefinitionRegistry registry)</text>
</g>
<!-- AnnotationConfigApplicationContext&#45;&gt;ClassPathBeanDefinitionScanner -->
<g id="edge2" class="edge">
<title>AnnotationConfigApplicationContext:f1&#45;&gt;ClassPathBeanDefinitionScanner</title>
<path fill="none" stroke="#0000ff" stroke-width="2" d="M1785.3915,-991.3C1802.2359,-991.3 1795.1619,-967.1213 1785.3915,-953.4 1757.02,-913.5559 1711.0173,-956.3205 1681.3915,-917.4 1601.0363,-811.8344 1662.3915,-752.169 1662.3915,-619.5 1662.3915,-619.5 1662.3915,-619.5 1662.3915,-433.7 1662.3915,-375.3871 1659.7808,-352.3986 1620.3915,-309.4 1609.0614,-297.0317 1595.2831,-286.6332 1580.5434,-277.9174"/>
<polygon fill="#0000ff" stroke="#0000ff" stroke-width="2" points="1582.1965,-274.8316 1571.765,-272.978 1578.7638,-280.9321 1582.1965,-274.8316"/>
</g>
<!-- AnnotatedBeanDefinitionReader -->
<g id="node12" class="node">
<title>AnnotatedBeanDefinitionReader</title>
<polygon fill="none" stroke="#0000ff" stroke-width="2" points="1690.0835,-805.3 1690.0835,-879.7 2296.6995,-879.7 2296.6995,-805.3 1690.0835,-805.3"/>
<text text-anchor="middle" x="1993.3915" y="-863.1" font-family="Times,serif" font-size="14.00" fill="#ff0000">AnnotatedBeanDefinitionReader</text>
<polyline fill="none" stroke="#0000ff" stroke-width="2" points="1690.0835,-854.9 2296.6995,-854.9 "/>
<text text-anchor="middle" x="1721.4117" y="-826.3" font-family="Times,serif" font-size="14.00" fill="#ff0000">function</text>
<polyline fill="none" stroke="#0000ff" stroke-width="2" points="1752.7399,-805.3 1752.7399,-854.9 "/>
<text text-anchor="middle" x="2024.7197" y="-838.3" font-family="Times,serif" font-size="14.00" fill="#ff0000">doRegisterBean(Class beanClass)</text>
<polyline fill="none" stroke="#0000ff" stroke-width="2" points="1752.7399,-830.1 2296.6995,-830.1 "/>
<text text-anchor="middle" x="2024.7197" y="-813.5" font-family="Times,serif" font-size="14.00" fill="#ff0000">AnnotatedBeanDefinitionReader(BeanDefinitionRegistry registry, Environment environment)</text>
</g>
<!-- AnnotationConfigApplicationContext&#45;&gt;AnnotatedBeanDefinitionReader -->
<g id="edge1" class="edge">
<title>AnnotationConfigApplicationContext:f0&#45;&gt;AnnotatedBeanDefinitionReader</title>
<path fill="none" stroke="#0000ff" stroke-width="2" d="M1785.3915,-1016.3C1865.4063,-1016.3 1930.8906,-939.627 1965.8475,-888.1328"/>
<polygon fill="#0000ff" stroke="#0000ff" stroke-width="2" points="1968.7762,-890.0495 1971.3991,-879.7845 1962.9473,-886.1733 1968.7762,-890.0495"/>
</g>
<!-- ConfigurationClassPostProcessor -->
<g id="node3" class="node">
<title>ConfigurationClassPostProcessor</title>
<polygon fill="none" stroke="#0000ff" stroke-width="2" points="1071.9962,-507.9 1071.9962,-731.1 1560.7868,-731.1 1560.7868,-507.9 1071.9962,-507.9"/>
<text text-anchor="middle" x="1316.3915" y="-714.5" font-family="Times,serif" font-size="14.00" fill="#ff0000">ConfigurationClassPostProcessor BeanDefinitionRegistryPostProcessor</text>
<polyline fill="none" stroke="#0000ff" stroke-width="2" points="1071.9962,-706.3 1560.7868,-706.3 "/>
<text text-anchor="middle" x="1103.3244" y="-689.7" font-family="Times,serif" font-size="14.00" fill="#ff0000">function</text>
<polyline fill="none" stroke="#0000ff" stroke-width="2" points="1134.6526,-681.5 1134.6526,-706.3 "/>
<text text-anchor="middle" x="1347.7197" y="-689.7" font-family="Times,serif" font-size="14.00" fill="#ff0000">postProcessBeanFactory(ConfigurableListableBeanFactory beanFactory)</text>
<polyline fill="none" stroke="#0000ff" stroke-width="2" points="1071.9962,-681.5 1560.7868,-681.5 "/>
<text text-anchor="middle" x="1162.5488" y="-664.9" font-family="Times,serif" font-size="14.00" fill="#ff0000">type</text>
<polyline fill="none" stroke="#0000ff" stroke-width="2" points="1253.1014,-656.7 1253.1014,-681.5 "/>
<text text-anchor="middle" x="1406.6358" y="-664.9" font-family="Times,serif" font-size="14.00" fill="#ff0000">BeanFactoryPostProcessor</text>
<polyline fill="none" stroke="#0000ff" stroke-width="2" points="1071.9962,-656.7 1560.7868,-656.7 "/>
<text text-anchor="middle" x="1148.4408" y="-578.1" font-family="Times,serif" font-size="14.00" fill="#ff0000">处理注解</text>
<polyline fill="none" stroke="#0000ff" stroke-width="2" points="1224.8854,-507.9 1224.8854,-656.7 "/>
<text text-anchor="middle" x="1392.7455" y="-640.1" font-family="Times,serif" font-size="14.00" fill="#ff0000">@PropertySource</text>
<polyline fill="none" stroke="#0000ff" stroke-width="2" points="1224.8854,-631.9 1560.6056,-631.9 "/>
<text text-anchor="middle" x="1392.7455" y="-615.3" font-family="Times,serif" font-size="14.00" fill="#ff0000">@ComponentScan</text>
<polyline fill="none" stroke="#0000ff" stroke-width="2" points="1224.8854,-607.1 1560.6056,-607.1 "/>
<text text-anchor="middle" x="1277.3829" y="-578.1" font-family="Times,serif" font-size="14.00" fill="#ff0000">@Import</text>
<polyline fill="none" stroke="#0000ff" stroke-width="2" points="1329.8804,-557.5 1329.8804,-607.1 "/>
<text text-anchor="middle" x="1445.243" y="-590.5" font-family="Times,serif" font-size="14.00" fill="#ff0000">ImportSelector</text>
<polyline fill="none" stroke="#0000ff" stroke-width="2" points="1329.8804,-582.3 1560.6056,-582.3 "/>
<text text-anchor="middle" x="1445.243" y="-565.7" font-family="Times,serif" font-size="14.00" fill="#ff0000">ImportBeanDefinitionRegistrar</text>
<polyline fill="none" stroke="#0000ff" stroke-width="2" points="1224.8854,-557.5 1560.6056,-557.5 "/>
<text text-anchor="middle" x="1392.7455" y="-540.9" font-family="Times,serif" font-size="14.00" fill="#ff0000">@ImportResource</text>
<polyline fill="none" stroke="#0000ff" stroke-width="2" points="1224.8854,-532.7 1560.6056,-532.7 "/>
<text text-anchor="middle" x="1392.7455" y="-516.1" font-family="Times,serif" font-size="14.00" fill="#ff0000">@Bean</text>
</g>
<!-- AbstractApplicationContext&#45;&gt;ConfigurationClassPostProcessor -->
<g id="edge6" class="edge">
<title>AbstractApplicationContext:f6&#45;&gt;ConfigurationClassPostProcessor</title>
<path fill="none" stroke="#0000ff" stroke-width="2" d="M1168.3915,-805.5C1210.7026,-805.5 1242.862,-775.6642 1266.2144,-739.8917"/>
<polygon fill="#0000ff" stroke="#0000ff" stroke-width="2" points="1269.3244,-741.5198 1271.6617,-731.186 1263.3903,-737.8067 1269.3244,-741.5198"/>
</g>
<!-- AbstractRefreshableApplicationContext -->
<g id="node8" class="node">
<title>AbstractRefreshableApplicationContext</title>
<polygon fill="none" stroke="#0000ff" stroke-width="2" points="578.5261,-396.5 578.5261,-470.9 1038.2569,-470.9 1038.2569,-396.5 578.5261,-396.5"/>
<text text-anchor="middle" x="808.3915" y="-454.3" font-family="Times,serif" font-size="14.00" fill="#ff0000">AbstractRefreshableApplicationContext</text>
<polyline fill="none" stroke="#0000ff" stroke-width="2" points="578.5261,-446.1 1038.2569,-446.1 "/>
<text text-anchor="middle" x="674.8543" y="-429.5" font-family="Times,serif" font-size="14.00" fill="#ff0000">function</text>
<polyline fill="none" stroke="#0000ff" stroke-width="2" points="771.1825,-421.3 771.1825,-446.1 "/>
<text text-anchor="middle" x="904.5353" y="-429.5" font-family="Times,serif" font-size="14.00" fill="#ff0000">refreshBeanFactory()</text>
<polyline fill="none" stroke="#0000ff" stroke-width="2" points="578.5261,-421.3 1038.2569,-421.3 "/>
<text text-anchor="middle" x="618.2207" y="-404.7" font-family="Times,serif" font-size="14.00" fill="#ff0000">关键代码</text>
<polyline fill="none" stroke="#0000ff" stroke-width="2" points="657.9153,-396.5 657.9153,-421.3 "/>
<text text-anchor="middle" x="848.0861" y="-404.7" font-family="Times,serif" font-size="14.00" fill="#ff0000">DefaultListableBeanFactory beanFactory = createBeanFactory();</text>
</g>
<!-- AbstractApplicationContext&#45;&gt;AbstractRefreshableApplicationContext -->
<g id="edge4" class="edge">
<title>AbstractApplicationContext:f4&#45;&gt;AbstractRefreshableApplicationContext</title>
<path fill="none" stroke="#a020f0" stroke-width="2" d="M1168.3915,-879.5C1218.1248,-879.5 1201.661,-804.5668 1168.3915,-767.6 1117.4176,-710.9614 880.143,-786.5868 827.3915,-731.6 794.1113,-696.9096 799.0889,-556.0443 804.3518,-481.1138"/>
<polygon fill="#a020f0" stroke="#a020f0" stroke-width="2" points="807.853,-481.2252 805.0924,-470.9963 800.8716,-480.7141 807.853,-481.2252"/>
</g>
<!-- ApplicationContextAwareProcessor -->
<g id="node10" class="node">
<title>ApplicationContextAwareProcessor</title>
<polygon fill="none" stroke="#0000ff" stroke-width="2" points="836.3136,-594.7 836.3136,-644.3 1054.4694,-644.3 1054.4694,-594.7 836.3136,-594.7"/>
<text text-anchor="middle" x="945.3915" y="-627.7" font-family="Times,serif" font-size="14.00" fill="#ff0000">ApplicationContextAwareProcessor</text>
<polyline fill="none" stroke="#0000ff" stroke-width="2" points="836.3136,-619.5 1054.4694,-619.5 "/>
<text text-anchor="middle" x="869.8662" y="-602.9" font-family="Times,serif" font-size="14.00" fill="#ff0000">type</text>
<polyline fill="none" stroke="#0000ff" stroke-width="2" points="903.4188,-594.7 903.4188,-619.5 "/>
<text text-anchor="middle" x="978.5717" y="-602.9" font-family="Times,serif" font-size="14.00" fill="#ff0000">BeanPostProcessor</text>
</g>
<!-- AbstractApplicationContext&#45;&gt;ApplicationContextAwareProcessor -->
<g id="edge5" class="edge">
<title>AbstractApplicationContext:f5&#45;&gt;ApplicationContextAwareProcessor</title>
<path fill="none" stroke="#ff0000" stroke-width="2" d="M1168.3915,-854.5C1207.0137,-854.5 1190.8402,-799.0282 1168.3915,-767.6 1139.7171,-727.4558 1105.577,-757.1766 1063.3915,-731.6 1028.2886,-710.3176 995.0255,-677.0891 972.8188,-652.3269"/>
<polygon fill="#ff0000" stroke="#ff0000" stroke-width="2" points="975.2502,-649.7925 966.009,-644.6106 970.0018,-654.4243 975.2502,-649.7925"/>
</g>
<!-- PostProcessorRegistrationDelegate -->
<g id="node11" class="node">
<title>PostProcessorRegistrationDelegate</title>
<polygon fill="none" stroke="#0000ff" stroke-width="2" points="0,-594.7 0,-644.3 780.783,-644.3 780.783,-594.7 0,-594.7"/>
<text text-anchor="middle" x="390.3915" y="-627.7" font-family="Times,serif" font-size="14.00" fill="#ff0000">PostProcessorRegistrationDelegate</text>
<polyline fill="none" stroke="#0000ff" stroke-width="2" points="0,-619.5 780.783,-619.5 "/>
<text text-anchor="middle" x="31.3282" y="-602.9" font-family="Times,serif" font-size="14.00" fill="#ff0000">function</text>
<polyline fill="none" stroke="#0000ff" stroke-width="2" points="62.6564,-594.7 62.6564,-619.5 "/>
<text text-anchor="middle" x="421.7197" y="-602.9" font-family="Times,serif" font-size="14.00" fill="#ff0000">registerBeanPostProcessors(ConfigurableListableBeanFactory beanFactory, AbstractApplicationContext applicationContext)</text>
</g>
<!-- AbstractApplicationContext&#45;&gt;PostProcessorRegistrationDelegate -->
<g id="edge7" class="edge">
<title>AbstractApplicationContext:f7&#45;&gt;PostProcessorRegistrationDelegate</title>
<path fill="none" stroke="#00ff00" stroke-width="2" d="M945.3915,-768.5C945.3915,-733.9571 827.816,-740.319 794.3915,-731.6 688.8095,-704.0583 568.35,-670.3335 486.6401,-647.1107"/>
<polygon fill="#00ff00" stroke="#00ff00" stroke-width="2" points="487.4472,-643.7015 476.8712,-644.3318 485.5319,-650.4344 487.4472,-643.7015"/>
</g>
<!-- ConfigurationClassParser -->
<g id="node4" class="node">
<title>ConfigurationClassParser</title>
<polygon fill="none" stroke="#0000ff" stroke-width="2" points="1056.0639,-408.9 1056.0639,-458.5 1634.7191,-458.5 1634.7191,-408.9 1056.0639,-408.9"/>
<text text-anchor="middle" x="1345.3915" y="-441.9" font-family="Times,serif" font-size="14.00" fill="#ff0000">ConfigurationClassParser</text>
<polyline fill="none" stroke="#0000ff" stroke-width="2" points="1056.0639,-433.7 1634.7191,-433.7 "/>
<text text-anchor="middle" x="1087.3921" y="-417.1" font-family="Times,serif" font-size="14.00" fill="#ff0000">function</text>
<polyline fill="none" stroke="#0000ff" stroke-width="2" points="1118.7203,-408.9 1118.7203,-433.7 "/>
<text text-anchor="middle" x="1376.7197" y="-417.1" font-family="Times,serif" font-size="14.00" fill="#ff0000">doProcessConfigurationClass(ConfigurationClass configClass, SourceClass sourceClass)</text>
</g>
<!-- ConfigurationClassPostProcessor&#45;&gt;ConfigurationClassParser -->
<g id="edge9" class="edge">
<title>ConfigurationClassPostProcessor:f3&#45;&gt;ConfigurationClassParser</title>
<path fill="none" stroke="#0000ff" stroke-width="2" d="M1560.3915,-619.5C1610.2137,-619.5 1589.3513,-547.9411 1560.3915,-507.4 1547.8642,-489.8629 1506.8801,-473.8728 1464.006,-461.3027"/>
<polygon fill="#0000ff" stroke="#0000ff" stroke-width="2" points="1464.8345,-457.8994 1454.2573,-458.5102 1462.9068,-464.6287 1464.8345,-457.8994"/>
</g>
<!-- ComponentScanAnnotationParser -->
<g id="node7" class="node">
<title>ComponentScanAnnotationParser</title>
<polygon fill="none" stroke="#0000ff" stroke-width="2" points="1125.5348,-309.9 1125.5348,-359.5 1611.2482,-359.5 1611.2482,-309.9 1125.5348,-309.9"/>
<text text-anchor="middle" x="1368.3915" y="-342.9" font-family="Times,serif" font-size="14.00" fill="#ff0000">ComponentScanAnnotationParser</text>
<polyline fill="none" stroke="#0000ff" stroke-width="2" points="1125.5348,-334.7 1611.2482,-334.7 "/>
<text text-anchor="middle" x="1156.863" y="-318.1" font-family="Times,serif" font-size="14.00" fill="#ff0000">function</text>
<polyline fill="none" stroke="#0000ff" stroke-width="2" points="1188.1912,-309.9 1188.1912,-334.7 "/>
<text text-anchor="middle" x="1399.7197" y="-318.1" font-family="Times,serif" font-size="14.00" fill="#ff0000">parse(AnnotationAttributes componentScan, final String declaringClass)</text>
</g>
<!-- ConfigurationClassParser&#45;&gt;ComponentScanAnnotationParser -->
<g id="edge10" class="edge">
<title>ConfigurationClassParser&#45;&gt;ComponentScanAnnotationParser</title>
<path fill="none" stroke="#0000ff" stroke-width="2" d="M1351.1954,-408.7181C1353.9465,-396.8761 1357.2796,-382.5296 1360.2761,-369.6316"/>
<polygon fill="#0000ff" stroke="#0000ff" stroke-width="2" points="1363.7357,-370.2065 1362.5895,-359.6739 1356.9172,-368.6224 1363.7357,-370.2065"/>
</g>
<!-- AnnotationConfigUtils -->
<g id="node5" class="node">
<title>AnnotationConfigUtils</title>
<polygon fill="none" stroke="#0000ff" stroke-width="2" points="1690.5362,-520.3 1690.5362,-718.7 2162.2468,-718.7 2162.2468,-520.3 1690.5362,-520.3"/>
<text text-anchor="middle" x="1926.3915" y="-702.1" font-family="Times,serif" font-size="14.00" fill="#ff0000">AnnotationConfigUtils</text>
<polyline fill="none" stroke="#0000ff" stroke-width="2" points="1690.5362,-693.9 2162.2468,-693.9 "/>
<text text-anchor="middle" x="1721.8644" y="-677.3" font-family="Times,serif" font-size="14.00" fill="#ff0000">function</text>
<polyline fill="none" stroke="#0000ff" stroke-width="2" points="1753.1926,-669.1 1753.1926,-693.9 "/>
<text text-anchor="middle" x="1957.7197" y="-677.3" font-family="Times,serif" font-size="14.00" fill="#ff0000">registerAnnotationConfigProcessors(BeanDefinitionRegistry registry)</text>
<polyline fill="none" stroke="#0000ff" stroke-width="2" points="1690.5362,-669.1 2162.2468,-669.1 "/>
<text text-anchor="middle" x="1769.485" y="-590.5" font-family="Times,serif" font-size="14.00" fill="#ff0000">默认后置处理器</text>
<polyline fill="none" stroke="#0000ff" stroke-width="2" points="1848.4338,-520.3 1848.4338,-669.1 "/>
<text text-anchor="middle" x="2004.9237" y="-652.5" font-family="Times,serif" font-size="14.00" fill="#ff0000">ConfigurationClassPostProcessor.class</text>
<polyline fill="none" stroke="#0000ff" stroke-width="2" points="1848.4338,-644.3 2161.4136,-644.3 "/>
<text text-anchor="middle" x="2004.9237" y="-627.7" font-family="Times,serif" font-size="14.00" fill="#ff0000">AutowiredAnnotationBeanPostProcessor.class</text>
<polyline fill="none" stroke="#0000ff" stroke-width="2" points="1848.4338,-619.5 2161.4136,-619.5 "/>
<text text-anchor="middle" x="2004.9237" y="-602.9" font-family="Times,serif" font-size="14.00" fill="#ff0000">CommonAnnotationBeanPostProcessor.class</text>
<polyline fill="none" stroke="#0000ff" stroke-width="2" points="1848.4338,-594.7 2161.4136,-594.7 "/>
<text text-anchor="middle" x="2004.9237" y="-578.1" font-family="Times,serif" font-size="14.00" fill="#ff0000">PersistenceAnnotationBeanPostProcessor.class</text>
<polyline fill="none" stroke="#0000ff" stroke-width="2" points="1848.4338,-569.9 2161.4136,-569.9 "/>
<text text-anchor="middle" x="2004.9237" y="-553.3" font-family="Times,serif" font-size="14.00" fill="#ff0000">EventListenerMethodProcessor.class</text>
<polyline fill="none" stroke="#0000ff" stroke-width="2" points="1848.4338,-545.1 2161.4136,-545.1 "/>
<text text-anchor="middle" x="2004.9237" y="-528.5" font-family="Times,serif" font-size="14.00" fill="#ff0000">DefaultEventListenerFactory.class</text>
</g>
<!-- BeanDefinitionReaderUtils -->
<g id="node13" class="node">
<title>BeanDefinitionReaderUtils</title>
<polygon fill="none" stroke="#0000ff" stroke-width="2" points="1139.7588,-111.9 1139.7588,-161.5 1765.0242,-161.5 1765.0242,-111.9 1139.7588,-111.9"/>
<text text-anchor="middle" x="1452.3915" y="-144.9" font-family="Times,serif" font-size="14.00" fill="#ff0000">BeanDefinitionReaderUtils</text>
<polyline fill="none" stroke="#0000ff" stroke-width="2" points="1139.7588,-136.7 1765.0242,-136.7 "/>
<text text-anchor="middle" x="1171.087" y="-120.1" font-family="Times,serif" font-size="14.00" fill="#ff0000">function</text>
<polyline fill="none" stroke="#0000ff" stroke-width="2" points="1202.4152,-111.9 1202.4152,-136.7 "/>
<text text-anchor="middle" x="1483.7197" y="-120.1" font-family="Times,serif" font-size="14.00" fill="#ff0000">registerBeanDefinition(BeanDefinitionHolder definitionHolder, BeanDefinitionRegistry registry)</text>
</g>
<!-- ClassPathBeanDefinitionScanner&#45;&gt;BeanDefinitionReaderUtils -->
<g id="edge12" class="edge">
<title>ClassPathBeanDefinitionScanner&#45;&gt;BeanDefinitionReaderUtils</title>
<path fill="none" stroke="#0000ff" stroke-width="2" d="M1452.3915,-198.2723C1452.3915,-189.5525 1452.3915,-180.3003 1452.3915,-171.6905"/>
<polygon fill="#0000ff" stroke="#0000ff" stroke-width="2" points="1455.8916,-171.586 1452.3915,-161.586 1448.8916,-171.5861 1455.8916,-171.586"/>
</g>
<!-- ComponentScanAnnotationParser&#45;&gt;ClassPathBeanDefinitionScanner -->
<g id="edge11" class="edge">
<title>ComponentScanAnnotationParser&#45;&gt;ClassPathBeanDefinitionScanner</title>
<path fill="none" stroke="#0000ff" stroke-width="2" d="M1389.5882,-309.7181C1397.0282,-300.9496 1405.6333,-290.8079 1414.0417,-280.8979"/>
<polygon fill="#0000ff" stroke="#0000ff" stroke-width="2" points="1416.916,-282.9202 1420.717,-273.0307 1411.5784,-278.3913 1416.916,-282.9202"/>
</g>
<!-- DefaultListableBeanFactory -->
<g id="node9" class="node">
<title>DefaultListableBeanFactory</title>
<polygon fill="none" stroke="#0000ff" stroke-width="2" points="936.0779,-.5 936.0779,-74.9 1430.7051,-74.9 1430.7051,-.5 936.0779,-.5"/>
<text text-anchor="middle" x="1183.3915" y="-58.3" font-family="Times,serif" font-size="14.00" fill="#ff0000">DefaultListableBeanFactory</text>
<polyline fill="none" stroke="#0000ff" stroke-width="2" points="936.0779,-50.1 1430.7051,-50.1 "/>
<text text-anchor="middle" x="1043.904" y="-33.5" font-family="Times,serif" font-size="14.00" fill="#ff0000">attribute</text>
<polyline fill="none" stroke="#0000ff" stroke-width="2" points="1151.7301,-25.3 1151.7301,-50.1 "/>
<text text-anchor="middle" x="1291.0464" y="-33.5" font-family="Times,serif" font-size="14.00" fill="#ff0000">beanDefinitionMap</text>
<polyline fill="none" stroke="#0000ff" stroke-width="2" points="936.0779,-25.3 1430.7051,-25.3 "/>
<text text-anchor="middle" x="967.4061" y="-8.7" font-family="Times,serif" font-size="14.00" fill="#ff0000">function</text>
<polyline fill="none" stroke="#0000ff" stroke-width="2" points="998.7343,-.5 998.7343,-25.3 "/>
<text text-anchor="middle" x="1214.7197" y="-8.7" font-family="Times,serif" font-size="14.00" fill="#ff0000">registerBeanDefinition(String beanName, BeanDefinition beanDefinition)</text>
</g>
<!-- AbstractRefreshableApplicationContext&#45;&gt;DefaultListableBeanFactory -->
<g id="edge8" class="edge">
<title>AbstractRefreshableApplicationContext&#45;&gt;DefaultListableBeanFactory</title>
<path fill="none" stroke="#0000ff" stroke-width="2" d="M843.6706,-396.4453C912.909,-323.3295 1066.3258,-161.3214 1140.9616,-82.506"/>
<polygon fill="#0000ff" stroke="#0000ff" stroke-width="2" points="1143.5984,-84.8118 1147.933,-75.1442 1138.5157,-79.9986 1143.5984,-84.8118"/>
</g>
<!-- AnnotatedBeanDefinitionReader&#45;&gt;AnnotationConfigUtils -->
<g id="edge15" class="edge">
<title>AnnotatedBeanDefinitionReader:f9&#45;&gt;AnnotationConfigUtils</title>
<path fill="none" stroke="#0000ff" stroke-width="2" d="M2024.3915,-805.5C2024.3915,-778.9608 2016.4857,-752.4924 2005.165,-728.1955"/>
<polygon fill="#0000ff" stroke="#0000ff" stroke-width="2" points="2008.2038,-726.442 2000.6684,-718.9942 2001.9146,-729.5156 2008.2038,-726.442"/>
</g>
<!-- AnnotatedBeanDefinitionReader&#45;&gt;BeanDefinitionReaderUtils -->
<g id="edge13" class="edge">
<title>AnnotatedBeanDefinitionReader:f10&#45;&gt;BeanDefinitionReaderUtils</title>
<path fill="none" stroke="#0000ff" stroke-width="2" d="M2296.3915,-842.5C2313.1471,-842.5 2298.7149,-821.3937 2296.3915,-804.8 2272.6062,-634.9273 2190.3915,-605.2298 2190.3915,-433.7 2190.3915,-433.7 2190.3915,-433.7 2190.3915,-334.7 2190.3915,-239.6661 1959.2178,-188.9875 1755.6377,-162.7832"/>
<polygon fill="#0000ff" stroke="#0000ff" stroke-width="2" points="1756.0202,-159.3037 1745.6588,-161.5153 1755.1379,-166.2479 1756.0202,-159.3037"/>
</g>
<!-- BeanDefinitionReaderUtils&#45;&gt;DefaultListableBeanFactory -->
<g id="edge14" class="edge">
<title>BeanDefinitionReaderUtils&#45;&gt;DefaultListableBeanFactory</title>
<path fill="none" stroke="#0000ff" stroke-width="2" d="M1384.8587,-111.8459C1357.3558,-101.724 1324.8373,-89.7563 1294.042,-78.4227"/>
<polygon fill="#0000ff" stroke="#0000ff" stroke-width="2" points="1295.1412,-75.0977 1284.5477,-74.9285 1292.7234,-81.667 1295.1412,-75.0977"/>
</g>
</g>
</svg>
