<?xml version="1.0" encoding="UTF-8" standalone="no"?>
<!DOCTYPE svg PUBLIC "-//W3C//DTD SVG 1.1//EN"
 "http://www.w3.org/Graphics/SVG/1.1/DTD/svg11.dtd">
<!-- Generated by graphviz version 2.40.1 (20161225.0304)
 -->
<!-- Title: graph_name Pages: 1 -->
<svg width="2036pt" height="938pt"
 viewBox="0.00 0.00 2036.40 938.00" xmlns="http://www.w3.org/2000/svg" xmlns:xlink="http://www.w3.org/1999/xlink">
<g id="graph0" class="graph" transform="scale(1 1) rotate(0) translate(4 934)">
<title>graph_name</title>
<polygon fill="#ffffff" stroke="transparent" points="-4,4 -4,-934 2032.3953,-934 2032.3953,4 -4,4"/>
<!-- AnnotationConfigApplicationContext -->
<g id="node1" class="node">
<title>AnnotationConfigApplicationContext</title>
<polygon fill="none" stroke="#0000ff" points="1479.6368,-780.7 1479.6368,-929.5 1791.1538,-929.5 1791.1538,-780.7 1479.6368,-780.7"/>
<text text-anchor="middle" x="1635.3953" y="-912.9" font-family="Times,serif" font-size="14.00" fill="#ff0000">AnnotationConfigApplicationContext</text>
<polyline fill="none" stroke="#0000ff" points="1479.6368,-904.7 1791.1538,-904.7 "/>
<text text-anchor="middle" x="1510.9629" y="-875.7" font-family="Times,serif" font-size="14.00" fill="#ff0000">attribute</text>
<polyline fill="none" stroke="#0000ff" points="1542.289,-855.1 1542.289,-904.7 "/>
<text text-anchor="middle" x="1666.7214" y="-888.1" font-family="Times,serif" font-size="14.00" fill="#ff0000">AnnotatedBeanDefinitionReader reader</text>
<polyline fill="none" stroke="#0000ff" points="1542.289,-879.9 1791.1538,-879.9 "/>
<text text-anchor="middle" x="1666.7214" y="-863.3" font-family="Times,serif" font-size="14.00" fill="#ff0000">ClassPathBeanDefinitionScanner scanner</text>
<polyline fill="none" stroke="#0000ff" points="1479.6368,-855.1 1791.1538,-855.1 "/>
<text text-anchor="middle" x="1511.965" y="-813.7" font-family="Times,serif" font-size="14.00" fill="#ff0000">function</text>
<polyline fill="none" stroke="#0000ff" points="1544.2932,-780.7 1544.2932,-855.1 "/>
<text text-anchor="middle" x="1667.308" y="-838.5" font-family="Times,serif" font-size="14.00" fill="#ff0000">register(Class componentClasses)</text>
<polyline fill="none" stroke="#0000ff" points="1544.2932,-830.3 1790.3228,-830.3 "/>
<text text-anchor="middle" x="1667.308" y="-813.7" font-family="Times,serif" font-size="14.00" fill="#ff0000">scan(String... basePackages)</text>
<polyline fill="none" stroke="#0000ff" points="1544.2932,-805.5 1790.3228,-805.5 "/>
<text text-anchor="middle" x="1667.308" y="-788.9" font-family="Times,serif" font-size="14.00" fill="#ff0000">AbstractApplicationContext类 refresh()</text>
</g>
<!-- AbstractApplicationContext -->
<g id="node2" class="node">
<title>AbstractApplicationContext</title>
<polygon fill="none" stroke="#0000ff" points="808.6067,-570.1 808.6067,-718.9 1316.1839,-718.9 1316.1839,-570.1 808.6067,-570.1"/>
<text text-anchor="middle" x="1062.3953" y="-702.3" font-family="Times,serif" font-size="14.00" fill="#ff0000">AbstractApplicationContext</text>
<polyline fill="none" stroke="#0000ff" points="808.6067,-694.1 1316.1839,-694.1 "/>
<text text-anchor="middle" x="839.9349" y="-627.9" font-family="Times,serif" font-size="14.00" fill="#ff0000">function</text>
<polyline fill="none" stroke="#0000ff" points="871.2631,-570.1 871.2631,-694.1 "/>
<text text-anchor="middle" x="1093.7235" y="-677.5" font-family="Times,serif" font-size="14.00" fill="#ff0000">ConfigurableListableBeanFactory beanFactory = obtainFreshBeanFactory();</text>
<polyline fill="none" stroke="#0000ff" points="871.2631,-669.3 1316.1839,-669.3 "/>
<text text-anchor="middle" x="1093.7235" y="-652.7" font-family="Times,serif" font-size="14.00" fill="#ff0000">prepareBeanFactory(beanFactory);</text>
<polyline fill="none" stroke="#0000ff" points="871.2631,-644.5 1316.1839,-644.5 "/>
<text text-anchor="middle" x="1093.7235" y="-627.9" font-family="Times,serif" font-size="14.00" fill="#ff0000">postProcessBeanFactory(beanFactory);</text>
<polyline fill="none" stroke="#0000ff" points="871.2631,-619.7 1316.1839,-619.7 "/>
<text text-anchor="middle" x="1093.7235" y="-603.1" font-family="Times,serif" font-size="14.00" fill="#ff0000">invokeBeanFactoryPostProcessors(beanFactory);</text>
<polyline fill="none" stroke="#0000ff" points="871.2631,-594.9 1316.1839,-594.9 "/>
<text text-anchor="middle" x="1093.7235" y="-578.3" font-family="Times,serif" font-size="14.00" fill="#ff0000">registerBeanPostProcessors(beanFactory);</text>
</g>
<!-- AnnotationConfigApplicationContext&#45;&gt;AbstractApplicationContext -->
<g id="edge3" class="edge">
<title>AnnotationConfigApplicationContext:f2&#45;&gt;AbstractApplicationContext</title>
<path fill="none" stroke="#0000ff" d="M1667.3953,-781.1C1667.3953,-726.0415 1476.2461,-755.6684 1422.3953,-744.2 1391.2105,-737.5587 1358.726,-729.7912 1326.5913,-721.5749"/>
<polygon fill="#0000ff" stroke="#0000ff" points="1327.1883,-718.1145 1316.6315,-719.0113 1325.4434,-724.8936 1327.1883,-718.1145"/>
</g>
<!-- AnnotationConfigUtils -->
<g id="node5" class="node">
<title>AnnotationConfigUtils</title>
<polygon fill="none" stroke="#0000ff" points="1431.54,-545.3 1431.54,-743.7 1903.2506,-743.7 1903.2506,-545.3 1431.54,-545.3"/>
<text text-anchor="middle" x="1667.3953" y="-727.1" font-family="Times,serif" font-size="14.00" fill="#ff0000">AnnotationConfigUtils</text>
<polyline fill="none" stroke="#0000ff" points="1431.54,-718.9 1903.2506,-718.9 "/>
<text text-anchor="middle" x="1462.8682" y="-702.3" font-family="Times,serif" font-size="14.00" fill="#ff0000">function</text>
<polyline fill="none" stroke="#0000ff" points="1494.1964,-694.1 1494.1964,-718.9 "/>
<text text-anchor="middle" x="1698.7235" y="-702.3" font-family="Times,serif" font-size="14.00" fill="#ff0000">registerAnnotationConfigProcessors(BeanDefinitionRegistry registry)</text>
<polyline fill="none" stroke="#0000ff" points="1431.54,-694.1 1903.2506,-694.1 "/>
<text text-anchor="middle" x="1510.4888" y="-615.5" font-family="Times,serif" font-size="14.00" fill="#ff0000">默认后置处理器</text>
<polyline fill="none" stroke="#0000ff" points="1589.4376,-545.3 1589.4376,-694.1 "/>
<text text-anchor="middle" x="1745.9275" y="-677.5" font-family="Times,serif" font-size="14.00" fill="#ff0000">ConfigurationClassPostProcessor.class</text>
<polyline fill="none" stroke="#0000ff" points="1589.4376,-669.3 1902.4174,-669.3 "/>
<text text-anchor="middle" x="1745.9275" y="-652.7" font-family="Times,serif" font-size="14.00" fill="#ff0000">AutowiredAnnotationBeanPostProcessor.class</text>
<polyline fill="none" stroke="#0000ff" points="1589.4376,-644.5 1902.4174,-644.5 "/>
<text text-anchor="middle" x="1745.9275" y="-627.9" font-family="Times,serif" font-size="14.00" fill="#ff0000">CommonAnnotationBeanPostProcessor.class</text>
<polyline fill="none" stroke="#0000ff" points="1589.4376,-619.7 1902.4174,-619.7 "/>
<text text-anchor="middle" x="1745.9275" y="-603.1" font-family="Times,serif" font-size="14.00" fill="#ff0000">PersistenceAnnotationBeanPostProcessor.class</text>
<polyline fill="none" stroke="#0000ff" points="1589.4376,-594.9 1902.4174,-594.9 "/>
<text text-anchor="middle" x="1745.9275" y="-578.3" font-family="Times,serif" font-size="14.00" fill="#ff0000">EventListenerMethodProcessor.class</text>
<polyline fill="none" stroke="#0000ff" points="1589.4376,-570.1 1902.4174,-570.1 "/>
<text text-anchor="middle" x="1745.9275" y="-553.5" font-family="Times,serif" font-size="14.00" fill="#ff0000">DefaultEventListenerFactory.class</text>
</g>
<!-- AnnotationConfigApplicationContext&#45;&gt;AnnotationConfigUtils -->
<g id="edge1" class="edge">
<title>AnnotationConfigApplicationContext:f0&#45;&gt;AnnotationConfigUtils</title>
<path fill="none" stroke="#0000ff" d="M1790.3953,-843.1C1839.6712,-843.1 1814.4672,-798.3645 1774.3815,-751.3574"/>
<polygon fill="#0000ff" stroke="#0000ff" points="1777.0246,-749.0629 1767.8293,-743.8 1771.7356,-753.6485 1777.0246,-749.0629"/>
</g>
<!-- ClassPathBeanDefinitionScanner -->
<g id="node6" class="node">
<title>ClassPathBeanDefinitionScanner</title>
<polygon fill="none" stroke="#0000ff" points="1047.2087,-.5 1047.2087,-50.1 1301.5819,-50.1 1301.5819,-.5 1047.2087,-.5"/>
<text text-anchor="middle" x="1174.3953" y="-33.5" font-family="Times,serif" font-size="14.00" fill="#ff0000">ClassPathBeanDefinitionScanner</text>
<polyline fill="none" stroke="#0000ff" points="1047.2087,-25.3 1301.5819,-25.3 "/>
<text text-anchor="middle" x="1078.5369" y="-8.7" font-family="Times,serif" font-size="14.00" fill="#ff0000">function</text>
<polyline fill="none" stroke="#0000ff" points="1109.8651,-.5 1109.8651,-25.3 "/>
<text text-anchor="middle" x="1205.7235" y="-8.7" font-family="Times,serif" font-size="14.00" fill="#ff0000">doScan(String... basePackages)</text>
</g>
<!-- AnnotationConfigApplicationContext&#45;&gt;ClassPathBeanDefinitionScanner -->
<g id="edge2" class="edge">
<title>AnnotationConfigApplicationContext:f1&#45;&gt;ClassPathBeanDefinitionScanner</title>
<path fill="none" stroke="#0000ff" d="M1790.3953,-818.1C2005.4908,-818.1 2028.3953,-611.7955 2028.3953,-396.7 2028.3953,-396.7 2028.3953,-396.7 2028.3953,-210.9 2028.3953,-138.4956 1553.5922,-70.8771 1312.0482,-41.1624"/>
<polygon fill="#0000ff" stroke="#0000ff" points="1312.1377,-37.6473 1301.7863,-39.9055 1311.2866,-44.5954 1312.1377,-37.6473"/>
</g>
<!-- ConfigurationClassPostProcessor -->
<g id="node3" class="node">
<title>ConfigurationClassPostProcessor</title>
<polygon fill="none" stroke="#0000ff" points="0,-285.1 0,-508.3 488.7906,-508.3 488.7906,-285.1 0,-285.1"/>
<text text-anchor="middle" x="244.3953" y="-491.7" font-family="Times,serif" font-size="14.00" fill="#ff0000">ConfigurationClassPostProcessor BeanDefinitionRegistryPostProcessor</text>
<polyline fill="none" stroke="#0000ff" points="0,-483.5 488.7906,-483.5 "/>
<text text-anchor="middle" x="31.3282" y="-466.9" font-family="Times,serif" font-size="14.00" fill="#ff0000">function</text>
<polyline fill="none" stroke="#0000ff" points="62.6564,-458.7 62.6564,-483.5 "/>
<text text-anchor="middle" x="275.7235" y="-466.9" font-family="Times,serif" font-size="14.00" fill="#ff0000">postProcessBeanFactory(ConfigurableListableBeanFactory beanFactory)</text>
<polyline fill="none" stroke="#0000ff" points="0,-458.7 488.7906,-458.7 "/>
<text text-anchor="middle" x="90.5526" y="-442.1" font-family="Times,serif" font-size="14.00" fill="#ff0000">type</text>
<polyline fill="none" stroke="#0000ff" points="181.1052,-433.9 181.1052,-458.7 "/>
<text text-anchor="middle" x="334.6396" y="-442.1" font-family="Times,serif" font-size="14.00" fill="#ff0000">BeanFactoryPostProcessor</text>
<polyline fill="none" stroke="#0000ff" points="0,-433.9 488.7906,-433.9 "/>
<text text-anchor="middle" x="76.4446" y="-355.3" font-family="Times,serif" font-size="14.00" fill="#ff0000">处理注解</text>
<polyline fill="none" stroke="#0000ff" points="152.8892,-285.1 152.8892,-433.9 "/>
<text text-anchor="middle" x="320.7493" y="-417.3" font-family="Times,serif" font-size="14.00" fill="#ff0000">@PropertySource</text>
<polyline fill="none" stroke="#0000ff" points="152.8892,-409.1 488.6094,-409.1 "/>
<text text-anchor="middle" x="320.7493" y="-392.5" font-family="Times,serif" font-size="14.00" fill="#ff0000">@ComponentScan</text>
<polyline fill="none" stroke="#0000ff" points="152.8892,-384.3 488.6094,-384.3 "/>
<text text-anchor="middle" x="205.3867" y="-355.3" font-family="Times,serif" font-size="14.00" fill="#ff0000">@Import</text>
<polyline fill="none" stroke="#0000ff" points="257.8842,-334.7 257.8842,-384.3 "/>
<text text-anchor="middle" x="373.2468" y="-367.7" font-family="Times,serif" font-size="14.00" fill="#ff0000">ImportSelector</text>
<polyline fill="none" stroke="#0000ff" points="257.8842,-359.5 488.6094,-359.5 "/>
<text text-anchor="middle" x="373.2468" y="-342.9" font-family="Times,serif" font-size="14.00" fill="#ff0000">ImportBeanDefinitionRegistrar</text>
<polyline fill="none" stroke="#0000ff" points="152.8892,-334.7 488.6094,-334.7 "/>
<text text-anchor="middle" x="320.7493" y="-318.1" font-family="Times,serif" font-size="14.00" fill="#ff0000">@ImportResource</text>
<polyline fill="none" stroke="#0000ff" points="152.8892,-309.9 488.6094,-309.9 "/>
<text text-anchor="middle" x="320.7493" y="-293.3" font-family="Times,serif" font-size="14.00" fill="#ff0000">@Bean</text>
</g>
<!-- AbstractApplicationContext&#45;&gt;ConfigurationClassPostProcessor -->
<g id="edge6" class="edge">
<title>AbstractApplicationContext:f6&#45;&gt;ConfigurationClassPostProcessor</title>
<path fill="none" stroke="#0000ff" d="M1316.3953,-607.5C1333.2397,-607.5 1327.8567,-581.9438 1316.3953,-569.6 1256.1249,-504.6895 624.5511,-529.412 498.9458,-508.6234"/>
<polygon fill="#0000ff" stroke="#0000ff" points="499.4802,-505.1607 488.9854,-506.613 498.0952,-512.0224 499.4802,-505.1607"/>
</g>
<!-- AbstractRefreshableApplicationContext -->
<g id="node8" class="node">
<title>AbstractRefreshableApplicationContext</title>
<polygon fill="none" stroke="#0000ff" points="506.5299,-359.5 506.5299,-433.9 966.2607,-433.9 966.2607,-359.5 506.5299,-359.5"/>
<text text-anchor="middle" x="736.3953" y="-417.3" font-family="Times,serif" font-size="14.00" fill="#ff0000">AbstractRefreshableApplicationContext</text>
<polyline fill="none" stroke="#0000ff" points="506.5299,-409.1 966.2607,-409.1 "/>
<text text-anchor="middle" x="602.8581" y="-392.5" font-family="Times,serif" font-size="14.00" fill="#ff0000">function</text>
<polyline fill="none" stroke="#0000ff" points="699.1863,-384.3 699.1863,-409.1 "/>
<text text-anchor="middle" x="832.5391" y="-392.5" font-family="Times,serif" font-size="14.00" fill="#ff0000">refreshBeanFactory()</text>
<polyline fill="none" stroke="#0000ff" points="506.5299,-384.3 966.2607,-384.3 "/>
<text text-anchor="middle" x="546.2245" y="-367.7" font-family="Times,serif" font-size="14.00" fill="#ff0000">关键代码</text>
<polyline fill="none" stroke="#0000ff" points="585.9191,-359.5 585.9191,-384.3 "/>
<text text-anchor="middle" x="776.0899" y="-367.7" font-family="Times,serif" font-size="14.00" fill="#ff0000">DefaultListableBeanFactory beanFactory = createBeanFactory();</text>
</g>
<!-- AbstractApplicationContext&#45;&gt;AbstractRefreshableApplicationContext -->
<g id="edge4" class="edge">
<title>AbstractApplicationContext:f4&#45;&gt;AbstractRefreshableApplicationContext</title>
<path fill="none" stroke="#a020f0" d="M1316.3953,-681.5C1366.1286,-681.5 1348.3268,-607.7285 1316.3953,-569.6 1217.5537,-451.5762 1122.1195,-555.3971 975.3953,-508.8 918.8835,-490.8528 858.45,-462.4153 812.4917,-438.6741"/>
<polygon fill="#a020f0" stroke="#a020f0" points="813.9848,-435.5056 803.4985,-433.993 810.7528,-441.7148 813.9848,-435.5056"/>
</g>
<!-- ApplicationContextAwareProcessor -->
<g id="node10" class="node">
<title>ApplicationContextAwareProcessor</title>
<polygon fill="none" stroke="#0000ff" points="984.3174,-371.9 984.3174,-421.5 1202.4732,-421.5 1202.4732,-371.9 984.3174,-371.9"/>
<text text-anchor="middle" x="1093.3953" y="-404.9" font-family="Times,serif" font-size="14.00" fill="#ff0000">ApplicationContextAwareProcessor</text>
<polyline fill="none" stroke="#0000ff" points="984.3174,-396.7 1202.4732,-396.7 "/>
<text text-anchor="middle" x="1017.87" y="-380.1" font-family="Times,serif" font-size="14.00" fill="#ff0000">type</text>
<polyline fill="none" stroke="#0000ff" points="1051.4226,-371.9 1051.4226,-396.7 "/>
<text text-anchor="middle" x="1126.5755" y="-380.1" font-family="Times,serif" font-size="14.00" fill="#ff0000">BeanPostProcessor</text>
</g>
<!-- AbstractApplicationContext&#45;&gt;ApplicationContextAwareProcessor -->
<g id="edge5" class="edge">
<title>AbstractApplicationContext:f5&#45;&gt;ApplicationContextAwareProcessor</title>
<path fill="none" stroke="#ff0000" d="M1316.3953,-656.5C1355.0175,-656.5 1335.6851,-603.0601 1316.3953,-569.6 1289.4622,-522.8819 1254.5741,-541.1043 1211.3953,-508.8 1179.1381,-484.6668 1146.2117,-452.6455 1123.3662,-429.0072"/>
<polygon fill="#ff0000" stroke="#ff0000" points="1125.7616,-426.4482 1116.3167,-421.6476 1120.7065,-431.2903 1125.7616,-426.4482"/>
</g>
<!-- PostProcessorRegistrationDelegate -->
<g id="node11" class="node">
<title>PostProcessorRegistrationDelegate</title>
<polygon fill="none" stroke="#0000ff" points="1220.0038,-371.9 1220.0038,-421.5 2000.7868,-421.5 2000.7868,-371.9 1220.0038,-371.9"/>
<text text-anchor="middle" x="1610.3953" y="-404.9" font-family="Times,serif" font-size="14.00" fill="#ff0000">PostProcessorRegistrationDelegate</text>
<polyline fill="none" stroke="#0000ff" points="1220.0038,-396.7 2000.7868,-396.7 "/>
<text text-anchor="middle" x="1251.332" y="-380.1" font-family="Times,serif" font-size="14.00" fill="#ff0000">function</text>
<polyline fill="none" stroke="#0000ff" points="1282.6602,-371.9 1282.6602,-396.7 "/>
<text text-anchor="middle" x="1641.7235" y="-380.1" font-family="Times,serif" font-size="14.00" fill="#ff0000">registerBeanPostProcessors(ConfigurableListableBeanFactory beanFactory, AbstractApplicationContext applicationContext)</text>
</g>
<!-- AbstractApplicationContext&#45;&gt;PostProcessorRegistrationDelegate -->
<g id="edge7" class="edge">
<title>AbstractApplicationContext:f7&#45;&gt;PostProcessorRegistrationDelegate</title>
<path fill="none" stroke="#00ff00" d="M1316.3953,-582.5C1373.4304,-582.5 1506.3969,-481.3138 1572.1637,-428.2858"/>
<polygon fill="#00ff00" stroke="#00ff00" points="1574.655,-430.7721 1580.2223,-421.7578 1570.2488,-425.3328 1574.655,-430.7721"/>
</g>
<!-- ConfigurationClassParser -->
<g id="node4" class="node">
<title>ConfigurationClassParser</title>
<polygon fill="none" stroke="#0000ff" points="31.0677,-186.1 31.0677,-235.7 609.7229,-235.7 609.7229,-186.1 31.0677,-186.1"/>
<text text-anchor="middle" x="320.3953" y="-219.1" font-family="Times,serif" font-size="14.00" fill="#ff0000">ConfigurationClassParser</text>
<polyline fill="none" stroke="#0000ff" points="31.0677,-210.9 609.7229,-210.9 "/>
<text text-anchor="middle" x="62.3959" y="-194.3" font-family="Times,serif" font-size="14.00" fill="#ff0000">function</text>
<polyline fill="none" stroke="#0000ff" points="93.7241,-186.1 93.7241,-210.9 "/>
<text text-anchor="middle" x="351.7235" y="-194.3" font-family="Times,serif" font-size="14.00" fill="#ff0000">doProcessConfigurationClass(ConfigurationClass configClass, SourceClass sourceClass)</text>
</g>
<!-- ConfigurationClassPostProcessor&#45;&gt;ConfigurationClassParser -->
<g id="edge9" class="edge">
<title>ConfigurationClassPostProcessor:f3&#45;&gt;ConfigurationClassParser</title>
<path fill="none" stroke="#0000ff" d="M488.3953,-396.7C500.8509,-396.7 495.2076,-295.0275 488.3953,-284.6 475.6681,-265.1186 456.5214,-250.7542 435.6562,-240.1726"/>
<polygon fill="#0000ff" stroke="#0000ff" points="437.1553,-237.01 426.6224,-235.8654 434.1426,-243.3285 437.1553,-237.01"/>
</g>
<!-- ComponentScanAnnotationParser -->
<g id="node7" class="node">
<title>ComponentScanAnnotationParser</title>
<polygon fill="none" stroke="#0000ff" points="796.5386,-87.1 796.5386,-136.7 1282.252,-136.7 1282.252,-87.1 796.5386,-87.1"/>
<text text-anchor="middle" x="1039.3953" y="-120.1" font-family="Times,serif" font-size="14.00" fill="#ff0000">ComponentScanAnnotationParser</text>
<polyline fill="none" stroke="#0000ff" points="796.5386,-111.9 1282.252,-111.9 "/>
<text text-anchor="middle" x="827.8668" y="-95.3" font-family="Times,serif" font-size="14.00" fill="#ff0000">function</text>
<polyline fill="none" stroke="#0000ff" points="859.195,-87.1 859.195,-111.9 "/>
<text text-anchor="middle" x="1070.7235" y="-95.3" font-family="Times,serif" font-size="14.00" fill="#ff0000">parse(AnnotationAttributes componentScan, final String declaringClass)</text>
</g>
<!-- ConfigurationClassParser&#45;&gt;ComponentScanAnnotationParser -->
<g id="edge10" class="edge">
<title>ConfigurationClassParser&#45;&gt;ComponentScanAnnotationParser</title>
<path fill="none" stroke="#0000ff" d="M500.9013,-186.0459C607.0929,-171.4243 741.2592,-152.9507 849.1052,-138.1013"/>
<polygon fill="#0000ff" stroke="#0000ff" points="849.6979,-141.5528 859.127,-136.7214 848.743,-134.6182 849.6979,-141.5528"/>
</g>
<!-- ComponentScanAnnotationParser&#45;&gt;ClassPathBeanDefinitionScanner -->
<g id="edge11" class="edge">
<title>ComponentScanAnnotationParser&#45;&gt;ClassPathBeanDefinitionScanner</title>
<path fill="none" stroke="#0000ff" d="M1078.0809,-87.0839C1093.3327,-77.3002 1111.0006,-65.9665 1127.0079,-55.6981"/>
<polygon fill="#0000ff" stroke="#0000ff" points="1129.1768,-58.4651 1135.7041,-50.1197 1125.3972,-52.5732 1129.1768,-58.4651"/>
</g>
<!-- DefaultListableBeanFactory -->
<g id="node9" class="node">
<title>DefaultListableBeanFactory</title>
<polygon fill="none" stroke="#0000ff" points="628.0817,-173.7 628.0817,-248.1 1122.7089,-248.1 1122.7089,-173.7 628.0817,-173.7"/>
<text text-anchor="middle" x="875.3953" y="-231.5" font-family="Times,serif" font-size="14.00" fill="#ff0000">DefaultListableBeanFactory</text>
<polyline fill="none" stroke="#0000ff" points="628.0817,-223.3 1122.7089,-223.3 "/>
<text text-anchor="middle" x="735.9078" y="-206.7" font-family="Times,serif" font-size="14.00" fill="#ff0000">attribute</text>
<polyline fill="none" stroke="#0000ff" points="843.7339,-198.5 843.7339,-223.3 "/>
<text text-anchor="middle" x="983.0502" y="-206.7" font-family="Times,serif" font-size="14.00" fill="#ff0000">beanDefinitionMap</text>
<polyline fill="none" stroke="#0000ff" points="628.0817,-198.5 1122.7089,-198.5 "/>
<text text-anchor="middle" x="659.4099" y="-181.9" font-family="Times,serif" font-size="14.00" fill="#ff0000">function</text>
<polyline fill="none" stroke="#0000ff" points="690.7381,-173.7 690.7381,-198.5 "/>
<text text-anchor="middle" x="906.7235" y="-181.9" font-family="Times,serif" font-size="14.00" fill="#ff0000">registerBeanDefinition(String beanName, BeanDefinition beanDefinition)</text>
</g>
<!-- AbstractRefreshableApplicationContext&#45;&gt;DefaultListableBeanFactory -->
<g id="edge8" class="edge">
<title>AbstractRefreshableApplicationContext&#45;&gt;DefaultListableBeanFactory</title>
<path fill="none" stroke="#0000ff" d="M764.524,-359.1006C786.7345,-329.4121 817.8078,-287.8766 841.4094,-256.3287"/>
<polygon fill="#0000ff" stroke="#0000ff" points="844.3581,-258.2299 847.5459,-248.126 838.753,-254.0366 844.3581,-258.2299"/>
</g>
</g>
</svg>
