<?xml version="1.0" encoding="UTF-8" standalone="no"?>
<!DOCTYPE svg PUBLIC "-//W3C//DTD SVG 1.1//EN"
 "http://www.w3.org/Graphics/SVG/1.1/DTD/svg11.dtd">
<!-- Generated by graphviz version 2.40.1 (20161225.0304)
 -->
<!-- Title: graph_name Pages: 1 -->
<svg width="1314pt" height="566pt"
 viewBox="0.00 0.00 1313.51 566.40" xmlns="http://www.w3.org/2000/svg" xmlns:xlink="http://www.w3.org/1999/xlink">
<g id="graph0" class="graph" transform="scale(1 1) rotate(0) translate(4 562.4)">
<title>graph_name</title>
<polygon fill="#ffffff" stroke="transparent" points="-4,4 -4,-562.4 1309.5142,-562.4 1309.5142,4 -4,4"/>
<!-- AnnotationConfigApplicationContext -->
<g id="node1" class="node">
<title>AnnotationConfigApplicationContext</title>
<polygon fill="none" stroke="#0000ff" points="609.5691,-409.1 609.5691,-557.9 921.0861,-557.9 921.0861,-409.1 609.5691,-409.1"/>
<text text-anchor="middle" x="765.3276" y="-541.3" font-family="Times,serif" font-size="14.00" fill="#ff0000">AnnotationConfigApplicationContext</text>
<polyline fill="none" stroke="#0000ff" points="609.5691,-533.1 921.0861,-533.1 "/>
<text text-anchor="middle" x="640.8952" y="-504.1" font-family="Times,serif" font-size="14.00" fill="#ff0000">attribute</text>
<polyline fill="none" stroke="#0000ff" points="672.2213,-483.5 672.2213,-533.1 "/>
<text text-anchor="middle" x="796.6537" y="-516.5" font-family="Times,serif" font-size="14.00" fill="#ff0000">AnnotatedBeanDefinitionReader reader</text>
<polyline fill="none" stroke="#0000ff" points="672.2213,-508.3 921.0861,-508.3 "/>
<text text-anchor="middle" x="796.6537" y="-491.7" font-family="Times,serif" font-size="14.00" fill="#ff0000">ClassPathBeanDefinitionScanner scanner</text>
<polyline fill="none" stroke="#0000ff" points="609.5691,-483.5 921.0861,-483.5 "/>
<text text-anchor="middle" x="641.8973" y="-442.1" font-family="Times,serif" font-size="14.00" fill="#ff0000">function</text>
<polyline fill="none" stroke="#0000ff" points="674.2255,-409.1 674.2255,-483.5 "/>
<text text-anchor="middle" x="797.2403" y="-466.9" font-family="Times,serif" font-size="14.00" fill="#ff0000">register(Class componentClasses)</text>
<polyline fill="none" stroke="#0000ff" points="674.2255,-458.7 920.2551,-458.7 "/>
<text text-anchor="middle" x="797.2403" y="-442.1" font-family="Times,serif" font-size="14.00" fill="#ff0000">scan(String... basePackages)</text>
<polyline fill="none" stroke="#0000ff" points="674.2255,-433.9 920.2551,-433.9 "/>
<text text-anchor="middle" x="797.2403" y="-417.3" font-family="Times,serif" font-size="14.00" fill="#ff0000">AbstractApplicationContext类 refresh()</text>
</g>
<!-- refresh方法 -->
<g id="node2" class="node">
<title>refresh方法</title>
<polygon fill="none" stroke="#0000ff" points="35.539,-223.3 35.539,-322.5 543.1162,-322.5 543.1162,-223.3 35.539,-223.3"/>
<text text-anchor="middle" x="289.3276" y="-305.9" font-family="Times,serif" font-size="14.00" fill="#ff0000">refresh方法</text>
<polyline fill="none" stroke="#0000ff" points="35.539,-297.7 543.1162,-297.7 "/>
<text text-anchor="middle" x="66.8672" y="-256.3" font-family="Times,serif" font-size="14.00" fill="#ff0000">function</text>
<polyline fill="none" stroke="#0000ff" points="98.1954,-223.3 98.1954,-297.7 "/>
<text text-anchor="middle" x="320.6558" y="-281.1" font-family="Times,serif" font-size="14.00" fill="#ff0000">ConfigurableListableBeanFactory beanFactory = obtainFreshBeanFactory();</text>
<polyline fill="none" stroke="#0000ff" points="98.1954,-272.9 543.1162,-272.9 "/>
<text text-anchor="middle" x="320.6558" y="-256.3" font-family="Times,serif" font-size="14.00" fill="#ff0000">prepareBeanFactory(beanFactory);</text>
<polyline fill="none" stroke="#0000ff" points="98.1954,-248.1 543.1162,-248.1 "/>
<text text-anchor="middle" x="320.6558" y="-231.5" font-family="Times,serif" font-size="14.00" fill="#ff0000">invokeBeanFactoryPostProcessors(beanFactory);</text>
</g>
<!-- AnnotationConfigApplicationContext&#45;&gt;refresh方法 -->
<g id="edge3" class="edge">
<title>AnnotationConfigApplicationContext:f2&#45;&gt;refresh方法</title>
<path fill="none" stroke="#0000ff" d="M797.3276,-409.5C797.3276,-354.4415 605.5929,-386.5372 552.3276,-372.6 506.2263,-360.5373 457.0543,-343.183 413.8522,-326.3245"/>
<polygon fill="#0000ff" stroke="#0000ff" points="415.0294,-323.0266 404.4422,-322.6238 412.4674,-329.5409 415.0294,-323.0266"/>
</g>
<!-- AnnotationConfigUtils -->
<g id="node5" class="node">
<title>AnnotationConfigUtils</title>
<polygon fill="none" stroke="#0000ff" points="561.4723,-173.7 561.4723,-372.1 1033.1829,-372.1 1033.1829,-173.7 561.4723,-173.7"/>
<text text-anchor="middle" x="797.3276" y="-355.5" font-family="Times,serif" font-size="14.00" fill="#ff0000">AnnotationConfigUtils</text>
<polyline fill="none" stroke="#0000ff" points="561.4723,-347.3 1033.1829,-347.3 "/>
<text text-anchor="middle" x="592.8005" y="-330.7" font-family="Times,serif" font-size="14.00" fill="#ff0000">function</text>
<polyline fill="none" stroke="#0000ff" points="624.1287,-322.5 624.1287,-347.3 "/>
<text text-anchor="middle" x="828.6558" y="-330.7" font-family="Times,serif" font-size="14.00" fill="#ff0000">registerAnnotationConfigProcessors(BeanDefinitionRegistry registry)</text>
<polyline fill="none" stroke="#0000ff" points="561.4723,-322.5 1033.1829,-322.5 "/>
<text text-anchor="middle" x="642.3815" y="-243.9" font-family="Times,serif" font-size="14.00" fill="#ff0000">默认PostProcessor</text>
<polyline fill="none" stroke="#0000ff" points="723.2907,-173.7 723.2907,-322.5 "/>
<text text-anchor="middle" x="877.7806" y="-305.9" font-family="Times,serif" font-size="14.00" fill="#ff0000">ConfigurationClassPostProcessor.class</text>
<polyline fill="none" stroke="#0000ff" points="723.2907,-297.7 1032.2705,-297.7 "/>
<text text-anchor="middle" x="877.7806" y="-281.1" font-family="Times,serif" font-size="14.00" fill="#ff0000">AutowiredAnnotationBeanPostProcessor.class</text>
<polyline fill="none" stroke="#0000ff" points="723.2907,-272.9 1032.2705,-272.9 "/>
<text text-anchor="middle" x="877.7806" y="-256.3" font-family="Times,serif" font-size="14.00" fill="#ff0000">CommonAnnotationBeanPostProcessor.class</text>
<polyline fill="none" stroke="#0000ff" points="723.2907,-248.1 1032.2705,-248.1 "/>
<text text-anchor="middle" x="877.7806" y="-231.5" font-family="Times,serif" font-size="14.00" fill="#ff0000">PersistenceAnnotationBeanPostProcessor.class</text>
<polyline fill="none" stroke="#0000ff" points="723.2907,-223.3 1032.2705,-223.3 "/>
<text text-anchor="middle" x="877.7806" y="-206.7" font-family="Times,serif" font-size="14.00" fill="#ff0000">EventListenerMethodProcessor.class</text>
<polyline fill="none" stroke="#0000ff" points="723.2907,-198.5 1032.2705,-198.5 "/>
<text text-anchor="middle" x="877.7806" y="-181.9" font-family="Times,serif" font-size="14.00" fill="#ff0000">DefaultEventListenerFactory.class</text>
</g>
<!-- AnnotationConfigApplicationContext&#45;&gt;AnnotationConfigUtils -->
<g id="edge1" class="edge">
<title>AnnotationConfigApplicationContext:f0&#45;&gt;AnnotationConfigUtils</title>
<path fill="none" stroke="#0000ff" d="M920.3276,-471.5C969.6035,-471.5 944.3995,-426.7645 904.3138,-379.7574"/>
<polygon fill="#0000ff" stroke="#0000ff" points="906.9569,-377.4629 897.7616,-372.2 901.6679,-382.0485 906.9569,-377.4629"/>
</g>
<!-- ClassPathBeanDefinitionScanner -->
<g id="node6" class="node">
<title>ClassPathBeanDefinitionScanner</title>
<polygon fill="none" stroke="#0000ff" points="1051.141,-248.1 1051.141,-297.7 1305.5142,-297.7 1305.5142,-248.1 1051.141,-248.1"/>
<text text-anchor="middle" x="1178.3276" y="-281.1" font-family="Times,serif" font-size="14.00" fill="#ff0000">ClassPathBeanDefinitionScanner</text>
<polyline fill="none" stroke="#0000ff" points="1051.141,-272.9 1305.5142,-272.9 "/>
<text text-anchor="middle" x="1082.4692" y="-256.3" font-family="Times,serif" font-size="14.00" fill="#ff0000">function</text>
<polyline fill="none" stroke="#0000ff" points="1113.7974,-248.1 1113.7974,-272.9 "/>
<text text-anchor="middle" x="1209.6558" y="-256.3" font-family="Times,serif" font-size="14.00" fill="#ff0000">doScan(String... basePackages)</text>
</g>
<!-- AnnotationConfigApplicationContext&#45;&gt;ClassPathBeanDefinitionScanner -->
<g id="edge2" class="edge">
<title>AnnotationConfigApplicationContext:f1&#45;&gt;ClassPathBeanDefinitionScanner</title>
<path fill="none" stroke="#0000ff" d="M920.3276,-446.5C1020.2571,-446.5 1110.5592,-355.7448 1152.9143,-305.4732"/>
<polygon fill="#0000ff" stroke="#0000ff" points="1155.6096,-307.706 1159.2945,-297.7726 1150.2193,-303.24 1155.6096,-307.706"/>
</g>
<!-- ConfigurationClassPostProcessor -->
<g id="node3" class="node">
<title>ConfigurationClassPostProcessor</title>
<polygon fill="none" stroke="#0000ff" points="44.9323,-87.1 44.9323,-136.7 533.7229,-136.7 533.7229,-87.1 44.9323,-87.1"/>
<text text-anchor="middle" x="289.3276" y="-120.1" font-family="Times,serif" font-size="14.00" fill="#ff0000">ConfigurationClassPostProcessor</text>
<polyline fill="none" stroke="#0000ff" points="44.9323,-111.9 533.7229,-111.9 "/>
<text text-anchor="middle" x="76.2605" y="-95.3" font-family="Times,serif" font-size="14.00" fill="#ff0000">function</text>
<polyline fill="none" stroke="#0000ff" points="107.5887,-87.1 107.5887,-111.9 "/>
<text text-anchor="middle" x="320.6558" y="-95.3" font-family="Times,serif" font-size="14.00" fill="#ff0000">postProcessBeanFactory(ConfigurableListableBeanFactory beanFactory)</text>
</g>
<!-- refresh方法&#45;&gt;ConfigurationClassPostProcessor -->
<g id="edge4" class="edge">
<title>refresh方法&#45;&gt;ConfigurationClassPostProcessor</title>
<path fill="none" stroke="#0000ff" d="M289.3276,-223.281C289.3276,-198.5548 289.3276,-169.2471 289.3276,-146.9026"/>
<polygon fill="#0000ff" stroke="#0000ff" points="292.8277,-146.8561 289.3276,-136.8562 285.8277,-146.8562 292.8277,-146.8561"/>
</g>
<!-- ConfigurationClassParser -->
<g id="node4" class="node">
<title>ConfigurationClassParser</title>
<polygon fill="none" stroke="#0000ff" points="0,-.5 0,-50.1 578.6552,-50.1 578.6552,-.5 0,-.5"/>
<text text-anchor="middle" x="289.3276" y="-33.5" font-family="Times,serif" font-size="14.00" fill="#ff0000">ConfigurationClassParser</text>
<polyline fill="none" stroke="#0000ff" points="0,-25.3 578.6552,-25.3 "/>
<text text-anchor="middle" x="31.3282" y="-8.7" font-family="Times,serif" font-size="14.00" fill="#ff0000">function</text>
<polyline fill="none" stroke="#0000ff" points="62.6564,-.5 62.6564,-25.3 "/>
<text text-anchor="middle" x="320.6558" y="-8.7" font-family="Times,serif" font-size="14.00" fill="#ff0000">doProcessConfigurationClass(ConfigurationClass configClass, SourceClass sourceClass)</text>
</g>
<!-- ConfigurationClassPostProcessor&#45;&gt;ConfigurationClassParser -->
<g id="edge5" class="edge">
<title>ConfigurationClassPostProcessor&#45;&gt;ConfigurationClassParser</title>
<path fill="none" stroke="#0000ff" d="M289.3276,-86.8517C289.3276,-78.5937 289.3276,-69.2517 289.3276,-60.3864"/>
<polygon fill="#0000ff" stroke="#0000ff" points="292.8277,-60.292 289.3276,-50.292 285.8277,-60.292 292.8277,-60.292"/>
</g>
</g>
</svg>
