<?xml version="1.0" encoding="UTF-8" standalone="no"?><svg xmlns="http://www.w3.org/2000/svg" xmlns:xlink="http://www.w3.org/1999/xlink" contentScriptType="application/ecmascript" contentStyleType="text/css" height="517px" preserveAspectRatio="none" style="width:1111px;height:517px;" version="1.1" viewBox="0 0 1111 517" width="1111px" zoomAndPan="magnify"><defs><filter height="300%" id="f1mvi7ifbwoiaq" width="300%" x="-1" y="-1"><feGaussianBlur result="blurOut" stdDeviation="2.0"/><feColorMatrix in="blurOut" result="blurOut2" type="matrix" values="0 0 0 0 0 0 0 0 0 0 0 0 0 0 0 0 0 0 .4 0"/><feOffset dx="4.0" dy="4.0" in="blurOut2" result="blurOut3"/><feBlend in="SourceGraphic" in2="blurOut3" mode="normal"/></filter></defs><g><rect fill="#FFFFFF" filter="url(#f1mvi7ifbwoiaq)" height="390.0527" style="stroke: #A80036; stroke-width: 1.0;" width="10" x="127" y="74.8745"/><rect fill="#FFFFFF" filter="url(#f1mvi7ifbwoiaq)" height="358.2983" style="stroke: #A80036; stroke-width: 1.0;" width="10" x="231" y="106.6289"/><rect fill="#FFFFFF" filter="url(#f1mvi7ifbwoiaq)" height="326.5439" style="stroke: #A80036; stroke-width: 1.0;" width="10" x="361.5" y="138.3833"/><rect fill="#FFFFFF" filter="url(#f1mvi7ifbwoiaq)" height="294.7896" style="stroke: #A80036; stroke-width: 1.0;" width="10" x="493" y="170.1377"/><rect fill="#FFFFFF" filter="url(#f1mvi7ifbwoiaq)" height="263.0352" style="stroke: #A80036; stroke-width: 1.0;" width="10" x="651.5" y="201.8921"/><rect fill="#FFFFFF" filter="url(#f1mvi7ifbwoiaq)" height="231.2808" style="stroke: #A80036; stroke-width: 1.0;" width="10" x="792" y="233.6465"/><rect fill="#FFFFFF" filter="url(#f1mvi7ifbwoiaq)" height="199.5264" style="stroke: #A80036; stroke-width: 1.0;" width="10" x="903.5" y="265.4009"/><rect fill="#FFFFFF" filter="url(#f1mvi7ifbwoiaq)" height="167.772" style="stroke: #A80036; stroke-width: 1.0;" width="10" x="1036" y="297.1553"/><line style="stroke: #A80036; stroke-width: 1.0; stroke-dasharray: 5.0,5.0;" x1="47" x2="47" y1="41.1201" y2="473.9272"/><line style="stroke: #A80036; stroke-width: 1.0; stroke-dasharray: 5.0,5.0;" x1="132" x2="132" y1="41.1201" y2="473.9272"/><line style="stroke: #A80036; stroke-width: 1.0; stroke-dasharray: 5.0,5.0;" x1="236" x2="236" y1="41.1201" y2="473.9272"/><line style="stroke: #A80036; stroke-width: 1.0; stroke-dasharray: 5.0,5.0;" x1="366" x2="366" y1="41.1201" y2="473.9272"/><line style="stroke: #A80036; stroke-width: 1.0; stroke-dasharray: 5.0,5.0;" x1="498" x2="498" y1="41.1201" y2="473.9272"/><line style="stroke: #A80036; stroke-width: 1.0; stroke-dasharray: 5.0,5.0;" x1="656" x2="656" y1="41.1201" y2="473.9272"/><line style="stroke: #A80036; stroke-width: 1.0; stroke-dasharray: 5.0,5.0;" x1="797" x2="797" y1="41.1201" y2="473.9272"/><line style="stroke: #A80036; stroke-width: 1.0; stroke-dasharray: 5.0,5.0;" x1="908" x2="908" y1="41.1201" y2="473.9272"/><line style="stroke: #A80036; stroke-width: 1.0; stroke-dasharray: 5.0,5.0;" x1="1041" x2="1041" y1="41.1201" y2="473.9272"/><rect fill="#FEFECE" filter="url(#f1mvi7ifbwoiaq)" height="33.1201" style="stroke: #A80036; stroke-width: 1.5;" width="75" x="8" y="3"/><text fill="#000000" font-family="sans-serif" font-size="14" lengthAdjust="spacingAndGlyphs" textLength="61" x="15" y="26.0439">Bootstrap</text><rect fill="#FEFECE" filter="url(#f1mvi7ifbwoiaq)" height="33.1201" style="stroke: #A80036; stroke-width: 1.5;" width="75" x="8" y="472.9272"/><text fill="#000000" font-family="sans-serif" font-size="14" lengthAdjust="spacingAndGlyphs" textLength="61" x="15" y="495.9712">Bootstrap</text><rect fill="#FEFECE" filter="url(#f1mvi7ifbwoiaq)" height="33.1201" style="stroke: #A80036; stroke-width: 1.5;" width="66" x="97" y="3"/><text fill="#000000" font-family="sans-serif" font-size="14" lengthAdjust="spacingAndGlyphs" textLength="52" x="104" y="26.0439">Catalina</text><rect fill="#FEFECE" filter="url(#f1mvi7ifbwoiaq)" height="33.1201" style="stroke: #A80036; stroke-width: 1.5;" width="66" x="97" y="472.9272"/><text fill="#000000" font-family="sans-serif" font-size="14" lengthAdjust="spacingAndGlyphs" textLength="52" x="104" y="495.9712">Catalina</text><rect fill="#FEFECE" filter="url(#f1mvi7ifbwoiaq)" height="33.1201" style="stroke: #A80036; stroke-width: 1.5;" width="114" x="177" y="3"/><text fill="#000000" font-family="sans-serif" font-size="14" lengthAdjust="spacingAndGlyphs" textLength="100" x="184" y="26.0439">StandardServer</text><rect fill="#FEFECE" filter="url(#f1mvi7ifbwoiaq)" height="33.1201" style="stroke: #A80036; stroke-width: 1.5;" width="114" x="177" y="472.9272"/><text fill="#000000" font-family="sans-serif" font-size="14" lengthAdjust="spacingAndGlyphs" textLength="100" x="184" y="495.9712">StandardServer</text><rect fill="#FEFECE" filter="url(#f1mvi7ifbwoiaq)" height="33.1201" style="stroke: #A80036; stroke-width: 1.5;" width="119" x="305" y="3"/><text fill="#000000" font-family="sans-serif" font-size="14" lengthAdjust="spacingAndGlyphs" textLength="105" x="312" y="26.0439">StandardService</text><rect fill="#FEFECE" filter="url(#f1mvi7ifbwoiaq)" height="33.1201" style="stroke: #A80036; stroke-width: 1.5;" width="119" x="305" y="472.9272"/><text fill="#000000" font-family="sans-serif" font-size="14" lengthAdjust="spacingAndGlyphs" textLength="105" x="312" y="495.9712">StandardService</text><rect fill="#FEFECE" filter="url(#f1mvi7ifbwoiaq)" height="33.1201" style="stroke: #A80036; stroke-width: 1.5;" width="116" x="438" y="3"/><text fill="#000000" font-family="sans-serif" font-size="14" lengthAdjust="spacingAndGlyphs" textLength="102" x="445" y="26.0439">StandardEngine</text><rect fill="#FEFECE" filter="url(#f1mvi7ifbwoiaq)" height="33.1201" style="stroke: #A80036; stroke-width: 1.5;" width="116" x="438" y="472.9272"/><text fill="#000000" font-family="sans-serif" font-size="14" lengthAdjust="spacingAndGlyphs" textLength="102" x="445" y="495.9712">StandardEngine</text><rect fill="#FEFECE" filter="url(#f1mvi7ifbwoiaq)" height="33.1201" style="stroke: #A80036; stroke-width: 1.5;" width="173" x="568" y="3"/><text fill="#000000" font-family="sans-serif" font-size="14" lengthAdjust="spacingAndGlyphs" textLength="159" x="575" y="26.0439">StandardThreadExecutor</text><rect fill="#FEFECE" filter="url(#f1mvi7ifbwoiaq)" height="33.1201" style="stroke: #A80036; stroke-width: 1.5;" width="173" x="568" y="472.9272"/><text fill="#000000" font-family="sans-serif" font-size="14" lengthAdjust="spacingAndGlyphs" textLength="159" x="575" y="495.9712">StandardThreadExecutor</text><rect fill="#FEFECE" filter="url(#f1mvi7ifbwoiaq)" height="33.1201" style="stroke: #A80036; stroke-width: 1.5;" width="80" x="755" y="3"/><text fill="#000000" font-family="sans-serif" font-size="14" lengthAdjust="spacingAndGlyphs" textLength="66" x="762" y="26.0439">Connector</text><rect fill="#FEFECE" filter="url(#f1mvi7ifbwoiaq)" height="33.1201" style="stroke: #A80036; stroke-width: 1.5;" width="80" x="755" y="472.9272"/><text fill="#000000" font-family="sans-serif" font-size="14" lengthAdjust="spacingAndGlyphs" textLength="66" x="762" y="495.9712">Connector</text><rect fill="#FEFECE" filter="url(#f1mvi7ifbwoiaq)" height="33.1201" style="stroke: #A80036; stroke-width: 1.5;" width="115" x="849" y="3"/><text fill="#000000" font-family="sans-serif" font-size="14" lengthAdjust="spacingAndGlyphs" textLength="101" x="856" y="26.0439">ProtocolHandler</text><rect fill="#FEFECE" filter="url(#f1mvi7ifbwoiaq)" height="33.1201" style="stroke: #A80036; stroke-width: 1.5;" width="115" x="849" y="472.9272"/><text fill="#000000" font-family="sans-serif" font-size="14" lengthAdjust="spacingAndGlyphs" textLength="101" x="856" y="495.9712">ProtocolHandler</text><rect fill="#FEFECE" filter="url(#f1mvi7ifbwoiaq)" height="33.1201" style="stroke: #A80036; stroke-width: 1.5;" width="122" x="978" y="3"/><text fill="#000000" font-family="sans-serif" font-size="14" lengthAdjust="spacingAndGlyphs" textLength="108" x="985" y="26.0439">AbstractEndpoint</text><rect fill="#FEFECE" filter="url(#f1mvi7ifbwoiaq)" height="33.1201" style="stroke: #A80036; stroke-width: 1.5;" width="122" x="978" y="472.9272"/><text fill="#000000" font-family="sans-serif" font-size="14" lengthAdjust="spacingAndGlyphs" textLength="108" x="985" y="495.9712">AbstractEndpoint</text><rect fill="#FFFFFF" filter="url(#f1mvi7ifbwoiaq)" height="390.0527" style="stroke: #A80036; stroke-width: 1.0;" width="10" x="127" y="74.8745"/><rect fill="#FFFFFF" filter="url(#f1mvi7ifbwoiaq)" height="358.2983" style="stroke: #A80036; stroke-width: 1.0;" width="10" x="231" y="106.6289"/><rect fill="#FFFFFF" filter="url(#f1mvi7ifbwoiaq)" height="326.5439" style="stroke: #A80036; stroke-width: 1.0;" width="10" x="361.5" y="138.3833"/><rect fill="#FFFFFF" filter="url(#f1mvi7ifbwoiaq)" height="294.7896" style="stroke: #A80036; stroke-width: 1.0;" width="10" x="493" y="170.1377"/><rect fill="#FFFFFF" filter="url(#f1mvi7ifbwoiaq)" height="263.0352" style="stroke: #A80036; stroke-width: 1.0;" width="10" x="651.5" y="201.8921"/><rect fill="#FFFFFF" filter="url(#f1mvi7ifbwoiaq)" height="231.2808" style="stroke: #A80036; stroke-width: 1.0;" width="10" x="792" y="233.6465"/><rect fill="#FFFFFF" filter="url(#f1mvi7ifbwoiaq)" height="199.5264" style="stroke: #A80036; stroke-width: 1.0;" width="10" x="903.5" y="265.4009"/><rect fill="#FFFFFF" filter="url(#f1mvi7ifbwoiaq)" height="167.772" style="stroke: #A80036; stroke-width: 1.0;" width="10" x="1036" y="297.1553"/><polygon fill="#A80036" points="115,70.8745,125,74.8745,115,78.8745,119,74.8745" style="stroke: #A80036; stroke-width: 1.0;"/><line style="stroke: #A80036; stroke-width: 1.0;" x1="47.5" x2="121" y1="74.8745" y2="74.8745"/><text fill="#000000" font-family="sans-serif" font-size="13" lengthAdjust="spacingAndGlyphs" textLength="24" x="54.5" y="70.0181">load</text><polygon fill="#A80036" points="219,102.6289,229,106.6289,219,110.6289,223,106.6289" style="stroke: #A80036; stroke-width: 1.0;"/><line style="stroke: #A80036; stroke-width: 1.0;" x1="137" x2="225" y1="106.6289" y2="106.6289"/><text fill="#000000" font-family="sans-serif" font-size="13" lengthAdjust="spacingAndGlyphs" textLength="17" x="144" y="101.7725">init</text><polygon fill="#A80036" points="349.5,134.3833,359.5,138.3833,349.5,142.3833,353.5,138.3833" style="stroke: #A80036; stroke-width: 1.0;"/><line style="stroke: #A80036; stroke-width: 1.0;" x1="241" x2="355.5" y1="138.3833" y2="138.3833"/><text fill="#000000" font-family="sans-serif" font-size="13" lengthAdjust="spacingAndGlyphs" textLength="17" x="248" y="133.5269">init</text><polygon fill="#A80036" points="481,166.1377,491,170.1377,481,174.1377,485,170.1377" style="stroke: #A80036; stroke-width: 1.0;"/><line style="stroke: #A80036; stroke-width: 1.0;" x1="371.5" x2="487" y1="170.1377" y2="170.1377"/><text fill="#000000" font-family="sans-serif" font-size="13" lengthAdjust="spacingAndGlyphs" textLength="17" x="378.5" y="165.2813">init</text><polygon fill="#A80036" points="639.5,197.8921,649.5,201.8921,639.5,205.8921,643.5,201.8921" style="stroke: #A80036; stroke-width: 1.0;"/><line style="stroke: #A80036; stroke-width: 1.0;" x1="371.5" x2="645.5" y1="201.8921" y2="201.8921"/><text fill="#000000" font-family="sans-serif" font-size="13" lengthAdjust="spacingAndGlyphs" textLength="17" x="378.5" y="197.0356">init</text><polygon fill="#A80036" points="780,229.6465,790,233.6465,780,237.6465,784,233.6465" style="stroke: #A80036; stroke-width: 1.0;"/><line style="stroke: #A80036; stroke-width: 1.0;" x1="371.5" x2="786" y1="233.6465" y2="233.6465"/><text fill="#000000" font-family="sans-serif" font-size="13" lengthAdjust="spacingAndGlyphs" textLength="17" x="378.5" y="228.79">init</text><polygon fill="#A80036" points="891.5,261.4009,901.5,265.4009,891.5,269.4009,895.5,265.4009" style="stroke: #A80036; stroke-width: 1.0;"/><line style="stroke: #A80036; stroke-width: 1.0;" x1="802" x2="897.5" y1="265.4009" y2="265.4009"/><text fill="#000000" font-family="sans-serif" font-size="13" lengthAdjust="spacingAndGlyphs" textLength="17" x="809" y="260.5444">init</text><polygon fill="#A80036" points="1024,293.1553,1034,297.1553,1024,301.1553,1028,297.1553" style="stroke: #A80036; stroke-width: 1.0;"/><line style="stroke: #A80036; stroke-width: 1.0;" x1="913.5" x2="1030" y1="297.1553" y2="297.1553"/><text fill="#000000" font-family="sans-serif" font-size="13" lengthAdjust="spacingAndGlyphs" textLength="17" x="920.5" y="292.2988">init</text><polygon fill="#A80036" points="219,324.9097,229,328.9097,219,332.9097,223,328.9097" style="stroke: #A80036; stroke-width: 1.0;"/><line style="stroke: #A80036; stroke-width: 1.0;" x1="137" x2="225" y1="328.9097" y2="328.9097"/><text fill="#000000" font-family="sans-serif" font-size="13" lengthAdjust="spacingAndGlyphs" textLength="26" x="144" y="324.0532">start</text><polygon fill="#A80036" points="349.5,356.6641,359.5,360.6641,349.5,364.6641,353.5,360.6641" style="stroke: #A80036; stroke-width: 1.0;"/><line style="stroke: #A80036; stroke-width: 1.0;" x1="241" x2="355.5" y1="360.6641" y2="360.6641"/><text fill="#000000" font-family="sans-serif" font-size="13" lengthAdjust="spacingAndGlyphs" textLength="26" x="248" y="355.8076">start</text><polygon fill="#A80036" points="481,388.4185,491,392.4185,481,396.4185,485,392.4185" style="stroke: #A80036; stroke-width: 1.0;"/><line style="stroke: #A80036; stroke-width: 1.0;" x1="371.5" x2="487" y1="392.4185" y2="392.4185"/><text fill="#000000" font-family="sans-serif" font-size="13" lengthAdjust="spacingAndGlyphs" textLength="26" x="378.5" y="387.562">start</text><polygon fill="#A80036" points="639.5,420.1729,649.5,424.1729,639.5,428.1729,643.5,424.1729" style="stroke: #A80036; stroke-width: 1.0;"/><line style="stroke: #A80036; stroke-width: 1.0;" x1="371.5" x2="645.5" y1="424.1729" y2="424.1729"/><text fill="#000000" font-family="sans-serif" font-size="13" lengthAdjust="spacingAndGlyphs" textLength="26" x="378.5" y="419.3164">start</text><polygon fill="#A80036" points="780,451.9272,790,455.9272,780,459.9272,784,455.9272" style="stroke: #A80036; stroke-width: 1.0;"/><line style="stroke: #A80036; stroke-width: 1.0;" x1="371.5" x2="786" y1="455.9272" y2="455.9272"/><text fill="#000000" font-family="sans-serif" font-size="13" lengthAdjust="spacingAndGlyphs" textLength="26" x="378.5" y="451.0708">start</text><!--
@startuml

Bootstrap -> Catalina: load
activate Catalina

Catalina -> StandardServer: init
activate StandardServer

StandardServer -> StandardService :init
activate StandardService

StandardService -> StandardEngine : init
activate StandardEngine

StandardService -> StandardThreadExecutor : init
activate StandardThreadExecutor

StandardService -> Connector : init
activate Connector

Connector -> ProtocolHandler : init
activate ProtocolHandler

ProtocolHandler -> AbstractEndpoint : init
activate AbstractEndpoint

Catalina -> StandardServer : start
StandardServer -> StandardService :start
StandardService -> StandardEngine :start
StandardService -> StandardThreadExecutor :start
StandardService -> Connector :start
@enduml

PlantUML version 1.2019.09(Tue Aug 27 00:19:51 CST 2019)
(GPL source distribution)
Java Runtime: Java(TM) SE Runtime Environment
JVM: Java HotSpot(TM) 64-Bit Server VM
Java Version: 9.0.4+11
Operating System: Windows 10
OS Version: 10.0
Default Encoding: GBK
Language: zh
Country: CN
--></g></svg>